<svg version="1.0" xmlns="http://www.w3.org/2000/svg" viewBox="0 0 2608 785"><g fill="#FFF"><path d="M626.5.6c-1.1.3-2.9.9-4 1.3-5.4 2.3-10.2 4-12.5 4.6-1.4.4-7.2 2.1-13 4-5.8 1.8-13.2 4.1-16.5 5-3.3 1-8.5 2.6-11.6 3.6-3 1.1-6.4 1.9-7.5 1.9-1.1 0-2.4.4-3 .8-.5.5-2.9 1.4-5.4 2.2-2.5.7-8.4 2.6-13.1 4.1-4.8 1.6-9.3 2.9-10.2 2.9-1.9 0-8.7 5.9-8.7 7.6 0 .7-.6 1.7-1.3 2.1-.7.4-2.8 2.8-4.7 5.3-1.9 2.5-4.1 5.1-4.8 5.9-3.3 3.5-12.8 15.6-14.2 18.1-.8 1.5-2.6 4.2-4 5.9-8.7 11.2-13.4 17.1-16.2 20.4-1.8 2.2-3.7 4.7-4.3 5.7-.5 1-2.4 3.3-4 5.2-1.7 1.8-4.6 5.4-6.4 8-1.9 2.7-3.8 4.8-4.3 4.8-.4 0-.8.6-.8 1.2 0 .7-1.5 3-3.3 5-1.7 2.1-6.1 7.4-9.7 11.9-3.6 4.5-6.9 8.7-7.5 9.3-.5.6-2.2 2.7-3.7 4.8-1.5 2-3.4 4.2-4.1 5-.7.7-1.8 2-2.3 2.9-.5.9-2.6 3.6-4.6 6-2 2.4-7.4 9.1-11.9 14.9-4.6 5.8-8.7 10.6-9.1 10.8-.4.2-.8 1-.8 1.8s-.3 1.4-.8 1.4c-.4 0-2.5 2.3-4.7 5.1-2.2 2.9-5.6 7.1-7.5 9.4-1.9 2.3-5.3 6.4-7.5 9.1-2.2 2.6-5.1 6-6.4 7.3-2.3 2.4-14.7 19.8-20.4 28.7-1.6 2.4-3.3 4.4-3.8 4.4s-.9.4-.9 1c0 .9-4.3 7.1-8.6 12.3-.8.9-1.4 2-1.4 2.3 0 .4-2.3 3.7-5.1 7.5-5.5 7.5-7.2 11.9-6 15.2.5 1.2 3.2 6 6 10.6s5.1 9 5.1 9.8c0 .7.3 1.3.8 1.3.4 0 1.9 2.1 3.2 4.7 1.4 2.7 4.2 7.5 6.4 10.8 2.1 3.3 4.2 6.9 4.7 8 .5 1.1 2.1 4.1 3.6 6.6 1.5 2.6 4.6 7.7 6.7 11.5 2.2 3.8 4.5 7.6 5.1 8.4.7.8 2.5 4 4.1 7 1.6 3 4 7.1 5.3 9 1.2 1.9 2.7 4.4 3.2 5.5 3.8 7.9 7.5 11.7 15.3 15.5 3.6 1.8 7.6 4.2 8.9 5.4 1.3 1.2 6.2 4.1 11 6.6 4.8 2.4 8.7 4.8 8.7 5.2 0 .5.9.8 1.9.8 1.1 0 2.1.3 2.3.7.2.5 4.6 3 9.8 5.7 5.2 2.7 10.9 5.8 12.5 6.8 1.7 1 3.7 2.1 4.5 2.5.8.4 3.8 2 6.5 3.6 4.8 2.9 13 7.4 22.5 12.4 2.5 1.3 7.2 3.9 10.5 5.7 3.3 1.8 8.9 4.9 12.5 6.8 16.4 8.6 26 14.4 26 15.5 0 .7-.4 1.3-.9 1.3s-1.7.8-2.7 1.7c-1 1-2.7 2.5-3.9 3.3-4.1 2.8-17.8 13.2-24.5 18.6-2.5 2-8.1 6.4-12.5 9.8-4.4 3.3-8.4 6.4-9 6.8-1.2.9-14.1 11.7-24.9 20.8-4.3 3.6-8.3 6.7-8.9 6.9-.6.2-1.7 1-2.5 1.7-.7.7-3.9 3.4-7.2 6-3.3 2.6-6 5.1-6 5.6 0 .4-1.2 1.4-2.6 2-1.4.7-4.9 3.3-7.7 6-2.9 2.6-5.7 4.8-6.3 4.8-.6 0-1.9.9-2.9 2s-2.2 2-2.7 2-2.3 1.3-4.1 3c-1.8 1.6-3.8 3-4.4 3-.7 0-1.3.4-1.3.8 0 .5-1.1 1.5-2.5 2.2-1.4.8-4.4 3.1-6.7 5.2s-4.5 3.8-5 3.8c-.4 0-1.6.7-2.6 1.6-1.6 1.4-16.1 12.2-20.6 15.4-1.1.8-5 3.8-8.6 6.6-3.6 2.8-7.5 5.6-8.7 6.2-1.2.7-2.7 1.8-3.5 2.4-1.4 1.4-13.2 10.3-16.7 12.8-5.5 3.8-30.3 22.7-33.5 25.5-.6.6-2.8 2.3-4.8 3.9-4.5 3.4-4.9 6.6-1.4 9.9 1.3 1.2 7.2 4.7 13 7.7s10.6 5.8 10.6 6.1c0 .4 1.5 1 3.4 1.3 1.9.4 3.9 1.3 4.6 2.1.7.8 1.7 1.5 2.3 1.5.6 0 7.4 3.1 15.1 6.9 16.4 8 18.4 8.9 29.1 13.1 4.4 1.8 9.9 4 12.1 5.1 2.3 1 6.4 2.6 9 3.5 2.7.9 6.7 2.4 8.9 3.4 7.6 3.4 38.5 13.7 52.5 17.5 3.6.9 9.2 2.6 12.5 3.6 17.1 5.2 47.2 11.8 75.5 16.5 75.6 12.6 164.4 12.2 240.5-1.1 28.4-5 76-16.1 91.5-21.4 1.4-.5 7.2-2.3 13-4.1 5.8-1.7 11.3-3.5 12.2-4.1 1-.5 2.6-.9 3.5-.9 1 0 2.7-.7 3.7-1.5 1.1-.8 2.9-1.5 4.1-1.5 1.2 0 2.5-.4 3-.9.6-.5 2.8-1.4 5-2.1 2.2-.7 9.4-3.4 16-6 10.9-4.3 16.1-6.5 25.2-10.6 1.7-.8 3.8-1.4 4.7-1.4.9 0 1.6-.5 1.6-1 0-.6.7-1 1.5-1 1.8 0 44.8-21.7 49.2-24.8 1.7-1.2 3.4-2.2 3.9-2.2.4 0 3-1.5 5.8-3.3 2.8-1.8 6.5-3.9 8.1-4.7 6.7-3.3 7.4-8.3 1.8-12.6-2.1-1.5-3.9-3.2-4.1-3.6-.2-.4-.9-.8-1.5-.8-.7 0-4.4-2.4-8.2-5.3-3.9-2.9-8.4-6.2-10.1-7.2-9.7-6.2-16.4-11-16.4-11.7 0-.4-.6-.8-1.3-.8-.7 0-2.2-.8-3.3-1.8-1.8-1.7-15.5-11.5-19.2-13.7-1-.6-1.9-1.3-2.2-1.6-.3-.3-1.8-1.4-3.5-2.3-1.6-.9-4.6-2.9-6.6-4.4-2-1.5-6.7-4.9-10.5-7.7-3.8-2.7-7.8-5.8-8.8-6.7-1.1-1-2.5-1.8-3.2-1.8-.7 0-1.4-.4-1.6-.8-.3-.8-13.3-10-19-13.5-1.6-.9-3.8-2.6-4.9-3.6-1.1-1-3.5-2.7-5.4-3.7-1.9-1-3.5-2.1-3.5-2.5 0-.3-4-3.2-9-6.5-4.9-3.2-9-6.2-9-6.6 0-.4-.6-.8-1.3-.8-.8 0-2.2-.9-3.2-2s-2.2-2-2.6-2c-.5 0-4.8-3-9.6-6.6-4.8-3.7-9.8-7.1-11-7.7-1.3-.6-2.3-1.3-2.3-1.7 0-.4-1.1-1.2-2.5-1.8-1.4-.7-3.1-1.7-3.8-2.2-1.4-1.2-18.7-13.9-23.5-17.2-13.6-9.5-14.9-10.8-15.7-15.4-.6-3.8-.9-4.6-3.5-10.9-1.9-4.6-5-15.8-5-18.1 0-2 1.7-3.5 10.6-9.9 2.3-1.7 8.8-6.6 14.5-11 5.7-4.3 10.9-8.3 11.4-8.7.6-.4 2.8-2.2 5-4 2.2-1.8 4.4-3.6 5-4 .5-.4 2.4-1.9 4.1-3.3 1.8-1.4 3.6-2.5 4.1-2.5.5 0 1.5-.9 2.3-2 .8-1.1 1.9-2 2.4-2s1.6-.7 2.5-1.5c3.9-3.8 7.7-6.5 9.2-6.5.8 0 3-1.6 4.9-3.5 1.9-1.9 3.8-3.5 4.3-3.5s2.7-1.5 4.8-3.3c7.1-6 10.7-8.7 11.3-8.7 1.3 0 5.6-4.9 5.6-6.4 0-.9.9-3.1 2-5.1 1.1-2 2-4.2 2-4.9 0-.7 1.8-4.8 4-9.1s4-8.6 4-9.6.5-2.1 1-2.4c.6-.3 1-1.4 1-2.4s.9-3 2-4.4c1.1-1.4 2-3.2 2-4 0-.8.9-2.6 2-4s2-3.2 2-4c0-.8 1.4-4.1 3-7.2 1.7-3.1 3-6.3 3-7.1 0-.8.4-2.2.9-3.2.5-.9 1.4-2.8 2-4.2.6-1.4 2-3.9 3-5.5 1.1-1.7 2-4 2-5.3.1-1.3 1-4.1 2-6.3 2.3-4.8 1.6-7.1-3.7-12.9-1.8-1.9-4-4.7-5-6.3-.9-1.5-2-2.7-2.4-2.7-.4 0-.8-.6-.8-1.3 0-.6-1.8-2.9-4-5-2.2-2-4-4.4-4-5.2 0-.8-.5-1.5-1-1.5-1.4 0-7-5.1-7-6.3 0-.6-1.9-3.1-4.2-5.7-5.7-6.2-11-12.8-12.4-15.4-.9-1.5-.9-8.8-.3-27.5 1.1-29.1 1.7-27-8.5-32.2-3.3-1.7-6.8-3.7-7.6-4.3-.8-.7-4.5-2.7-8.2-4.5-3.8-1.8-6.8-3.6-6.8-4.2 0-.5-.9-.9-2-.9s-2-.5-2-1c0-.6-.9-1-2-1s-2-.5-2-1c0-.6-.7-1-1.5-1-1.3 0-1.4-2.3-.8-17.4.7-18.9.7-18.8-4.9-21.3-1.6-.7-2.8-1.7-2.8-2.3 0-.6-.4-.9-.9-.6-.5.3-1.4-.1-2.1-.9-.7-.8-1.6-1.5-2.1-1.5s-4-2-7.8-4.5-7.2-4.5-7.6-4.5c-.3 0-3.3-1.8-6.6-4s-6.3-4-6.6-4c-.3 0-2.2-1.4-4.3-3-2.1-1.7-4.2-3-4.6-3-1.9-.1-7.4-6-13.9-15-3.7-5.2-7.1-9.7-7.5-10-.4-.3-2.2-2.8-4.1-5.5-3.9-5.8-7.6-10.8-13.3-18.3-2.3-2.9-5-6.6-6.1-8.1-8.8-12.4-15-20.7-15.9-21.3-.6-.4-.8-.8-.4-.8 1.2 0-2.4-4-4.7-5.3-2-1.1-6.4-1.9-21-3.7-18.4-2.3-34.7-4.5-45-6.1-3.3-.6-9.4-1.4-13.5-1.9-4.1-.6-8.6-1.2-10-1.4-6.1-1.1-10.6-1.4-12.5-1zm23.2 13.7c4.5.7 8.5 1.5 8.8 1.9.4.4-.2 2.8-1.4 5.3-1.1 2.4-2.1 4.8-2.1 5.2 0 .7-3.4 8.3-5.1 11.5-.5 1-.9 2.5-.9 3.3 0 2.1-1.5 1.9-4.3-.8-5.2-4.7-8.3-7.3-11.5-9.6-3.8-2.7-3.8-3.6-.6-12.8 1.8-5 2.1-5.3 5.4-5.2 1.9 0 7.2.5 11.7 1.2zm-28.2.7c.3.5-.5 3.3-1.8 6.2-1.3 2.9-3 6.9-3.7 8.8-.6 1.9-1.6 4.4-2 5.5-.5 1.1-1.1 2.8-1.4 3.8-.6 1.8-.7 1.8-3.7 0-1.7-1-3.3-2.4-3.6-3.1-.3-.6-1.1-1.2-1.7-1.2-.7 0-2.1-.8-3.2-1.8-1-.9-3.1-2.3-4.6-3.1-1.6-.8-2.8-1.8-2.8-2.3 0-.4-.6-.8-1.4-.8-.7 0-1.9-.6-2.6-1.4-.9-1.2-.5-1.6 2.4-2.2 2-.3 3.9-1 4.2-1.5.3-.5 1.5-.9 2.7-1 1.2 0 6.5-1.5 11.7-3.4 11.2-3.9 10.7-3.8 11.5-2.5zm65.5 4.1c3.6.5 8.8 1.3 11.5 1.7l5 .8-3.2 1.7c-1.8.9-3.9 1.7-4.8 1.7-.8 0-1.5.4-1.5.9s-1.5 1.4-3.2 2.1c-1.8.7-7 3-11.6 5.1-4.6 2.1-9.1 3.9-10.1 3.9-.9 0-2.6.7-3.7 1.5-3.8 2.9-6.3.5-2.9-2.9.8-.8 1.5-1.9 1.5-2.5 0-2.5 4.5-11.1 6.1-11.6.9-.3 1.9-1.5 2.2-2.7.5-1.8 1.1-2 4.4-1.4 2.1.4 6.7 1.2 10.3 1.7zM568.1 36.4c-.7 2.2-1.7 5.5-2.2 7.2-.5 1.7-.9 3.7-.9 4.6 0 .9-.6 2.8-1.4 4.2l-1.4 2.7-2.8-2.6c-1.6-1.5-4.1-3.3-5.6-4.1-1.6-.8-2.8-1.9-2.8-2.4 0-.6-.6-1-1.2-1-.7-.1-2.8-1.4-4.7-3-2.4-2.1-3-3.1-2-3.4.8-.2 5.5-1.6 10.4-3.1 5-1.4 10.4-3.2 12-3.9 3.7-1.6 4.1-.7 2.6 4.8zm18.3.4c2.8 2.1 7.2 5.1 9.8 6.7 2.6 1.7 4.7 3.5 4.8 4.1 0 .6-2.1 1.7-4.7 2.4-2.7.6-5.7 1.5-6.8 2-1.1.4-4.2 1.5-7 2.3-2.7.8-5.8 1.8-6.7 2.2-1.5.6-1.6.2-1.1-3.2.3-2.1 1-4.2 1.4-4.8.5-.5.9-2 .9-3.4 0-1.3.5-4.1 1.1-6 .7-2 1.3-4.2 1.5-4.9.5-1.8 1.3-1.5 6.8 2.6zm113.9 4.7c-4.7 6.5-8.9 12.4-12.8 18.1-1.9 2.9-9.5 12.9-14.4 19.1-1.4 1.8-3.1 3.3-3.7 3.3-1.1 0-5.4-7.9-5.4-9.9 0-.5-1.3-3.8-3-7.3-4.3-9.1-4.1-10.2 2.5-13.3 3.1-1.4 6-2.5 6.5-2.5s3.3-1.1 6.2-2.4c2.9-1.3 8.7-3.8 12.8-5.6 4.1-1.8 9.3-4 11.5-5 2.2-1 4.2-1.6 4.3-1.5.2.2-1.8 3.3-4.5 7zm34.8.3c.8 1.5 1.9 3.2 2.4 3.8.6.6 2.1 2.6 3.5 4.4 1.4 1.9 3.5 4.6 4.8 6.1 1.2 1.5 2.2 3 2.2 3.4 0 .3.6 1.2 1.3 2 1.9 2 4 4.7 6.7 8.5 1.3 1.9 2.7 3.7 3 4 1.7 1.5 13 17.2 13 18 0 .5-1.2.8-2.7.5-1.6-.2-12.4-1-24-1.6-11.7-.7-21.8-1.6-22.4-2-.9-.5-.9-2.3 0-7 1-6 6.1-44.3 6.1-46.3 0-1.5 4.5 3.2 6.1 6.2zM633 45.2l7.9 6.2-3.2 2.8c-1.8 1.5-3.5 2.7-3.9 2.8-.4 0-5.4 3.6-11.2 8-5.8 4.4-10.6 7.4-10.6 6.8 0-.7 2.1-6.3 4.6-12.3 2.5-6.1 5.2-13.1 6-15.8.9-2.6 1.7-4.7 2-4.7.2 0 4 2.8 8.4 6.2zm85.5-2.5c-.4 2.1-1 4.9-1.5 6.3-.5 1.4-1.1 5.4-1.5 9-.6 6.3-1.1 10.6-3.5 27.5-.6 4.4-1.4 12.9-1.6 19-.3 6-.9 11.4-1.3 11.8-.5.5-3.4-1.2-6.5-3.7-3-2.5-5.9-4.6-6.4-4.6s-1.9-1.1-3.2-2.5c-1.3-1.4-2.7-2.5-3.1-2.5-.5 0-2.7-1.8-5.1-4-2.4-2.2-4.9-4-5.5-4-1.8 0-1.6-2.6.4-5.8 1.6-2.6 14.2-19.1 15.3-20.2.5-.5 1.4-1.9 4.8-7.2.9-1.6 2.3-2.8 3-2.8.6 0 1.2-.6 1.2-1.3 0-1 3.9-6.7 11.1-16 2.9-3.7 4.1-3.4 3.4 1zm-189.2 9.8c.9 2 1.7 4.2 1.7 5.1 0 .8.9 3.4 2 5.6 1.1 2.3 2 4.7 2 5.3 0 .7.7 2.6 1.6 4.4.9 1.8 1.4 3.4 1.2 3.7-.5.4-9.1-1.5-17.3-3.8-3.5-1-5.5-1.4-8.7-1.7-.5-.1-.8-.6-.8-1.2 0-1.1 15.1-20.8 16.1-20.8.3-.1 1.3 1.5 2.2 3.4zm16.7 3c2.5 1.9 5.6 4.3 7 5.4 5.8 4.5 11.8 8.8 16.7 11.9 2.8 1.8 5.3 3.7 5.5 4.1.2.4 3.2 2.7 6.8 5.2 14.2 9.7 14.9 10.7 11.3 15.9-1 1.4-5.8 10.6-10.8 20.4-8.6 17.2-11.5 21.3-11.5 16.7 0-1.2-.4-2.9-.9-3.9-.5-.9-1.4-3.1-2.1-4.7-.7-1.7-1.6-3.8-2.1-4.7-.5-1-.9-2.5-.9-3.3 0-1.5-.3-2.3-3.3-8-.8-1.7-1.8-4.7-2.2-6.8-.4-2-1.1-4-1.6-4.3-.5-.3-.9-1.3-.9-2.3 0-.9-.9-3.6-2-5.9-1.1-2.2-2-4.8-2-5.6 0-.8-.4-1.8-1-2.1-.5-.3-1-1.4-1-2.4 0-.9-.9-3.6-2-5.9-1.1-2.2-2-4.8-2-5.6 0-.8-.4-1.7-.9-2-.4-.3-1.4-2.7-2.1-5.3-.7-2.7-1.6-5.3-2-5.8-1.2-1.8-2-4.5-1.2-4.5.4 0 2.7 1.6 5.2 3.5zm57.1 9.6c-1 2.4-2.7 6.5-3.6 9.1-1 2.7-2.2 4.8-2.7 4.8-.6 0-3.5-1.9-6.6-4.3-3.2-2.3-7-5.1-8.7-6.2l-3-1.9 13-4.2c9.3-2.9 13.1-3.7 13.3-2.9.2.7-.6 3.3-1.7 5.6zm48.8 5.4c1.8 4.9 4.2 10.9 5.3 13.3 1.1 2.4 1.9 4.5 1.7 4.7-.8.8-45.8-1-46.6-1.9-.4-.5-.3-1.1.3-1.3.6-.2 8.7-6 17.9-12.9 9.3-6.8 17.1-12.1 17.5-11.7.3.5 2.1 4.8 3.9 9.8zM520.8 83.7c6.2 1.5 11.1 3.1 11 3.5-.4 1.1-26.8 16.7-27.1 15.9-.1-.3-.1-5.7.1-11.9.3-11.2.4-11.4 2.5-10.8 1.2.3 7.3 1.8 13.5 3.3zm-26.3 15.2c-.2.9-.4 3.8-.5 6.6l-.1 5-13.5 10.5c-7.5 5.8-14.9 11.7-16.6 13.2-1.8 1.5-3.5 2.5-4 2.2-.9-.6 4.1-8.1 8.9-13.4 1.8-1.9 3.3-3.8 3.3-4.2 0-.4.6-1.3 1.3-2 2.8-2.9 8.7-10.6 8.7-11.3 0-.4 1-1.7 2.3-2.9 3.3-3.2 8.7-10 8.8-11.1.1-.6.5.5.9 2.4.4 1.8.6 4.1.5 5zm52.2.8c1.2 3.2 3.3 8.9 4.7 12.8 1.4 3.8 2.6 7.2 2.7 7.5 0 .3.7 2 1.5 3.9.8 1.8 1.4 3.7 1.4 4.1 0 .4 1.1 3.3 2.5 6.4 2.7 6.1 1.9 7.2-2.6 3.8-1.3-1-5.8-3.5-9.9-5.6-4.1-2.1-8.2-4.5-9.1-5.2-.8-.8-2-1.4-2.6-1.4-.6 0-5.9-2.7-11.8-6s-11.1-6-11.6-6c-2.1 0-.6-2.3 2.1-3.3 1.7-.6 3-1.5 3-1.9 0-.4.5-.8 1.1-.8.6 0 3.1-1.4 5.6-3 2.4-1.7 5.1-3 5.9-3 .7 0 1.4-.5 1.4-1 0-.6 1.2-1.6 2.8-2.3 1.5-.6 2.9-1.4 3.2-1.7 1.2-1.2 4.6-2.9 6.1-2.9.9-.1 2.3 2 3.6 5.6zm92.8-1.2c14.8.6 19.5 1.5 17 3.3-.6.4-1.6 1.9-2.4 3.4-.8 1.6-1.8 2.8-2.3 2.8-.4 0-.8.4-.8 1 0 .5-1.6 3.4-3.5 6.4-1.9 3-3.5 5.7-3.5 6 0 .3-2.8 4.8-6.2 10.1-6.9 10.8-7.2 10.9-10.6 1.5-1.1-3-3.2-8.2-4.7-11.5-3.7-8.2-5-11.3-7.1-16.5-.9-2.5-2.1-5-2.6-5.7-1-1.2 3.4-2.1 8.2-1.6 1.4.1 9.7.5 18.5.8zm99 3c12.6 1 27.3 1.9 30.5 2 1.9 0 3.6.4 3.8.8.2.5-1.6 3-4 5.6-2.4 2.6-6.1 6.9-8.2 9.7-2.2 2.7-5 5.9-6.3 7-1.3 1.2-2.3 2.5-2.3 3s-1.8 2.8-3.9 5.2c-2.2 2.4-4.1 4.7-4.3 5.1-.2.4-2.2 3-4.5 5.7-2.4 2.7-8.2 9.6-12.9 15.4-4.8 5.8-9.1 10.7-9.7 10.9-.5.2-.7-1.8-.3-5 .3-3 .9-11.3 1.2-18.4.3-7.2 1-13.5 1.4-14 1.4-1.8 2.3-8.9 2.5-19.5.2-5.8.3-11.6.4-12.8.1-2.3.3-2.4 5.9-1.8 3.1.4 8 .8 10.7 1.1zm-61.7 5.8c2.4 1.8 5.2 3.9 6.2 4.8.9.9 2.2 1.8 2.7 2 1.9.8 14.3 10.4 14.3 11.1 0 .5-.9.8-1.9.8-1.1 0-2.3.4-2.6 1-.3.5-1.7 1-3 1s-2.7.4-3 1c-.3.5-1.7 1-3 1s-2.7.4-3 1c-.3.5-1.5 1-2.6 1-1 0-2.7.4-3.7.9-2.8 1.4-8.7 3.1-10.8 3.1-1.1 0-3.7.9-5.9 2s-4.6 2-5.5 2c-.8 0-3.5.7-5.9 1.6-2.4.8-4.6 1.2-4.9.9-.3-.3.4-1.9 1.6-3.5 1.2-1.6 2.2-3.2 2.2-3.6 0-.3 1.3-2.5 2.8-4.8 1.5-2.2 3.1-4.8 3.5-5.6.4-.8 1.5-2.7 2.5-4.2 3.1-4.8 8.7-14.3 9.4-16.2 1.1-2.4 4.9-1.5 10.6 2.7zm-72.2-.7c.4 1.4 2 5.3 3.5 8.5 1.6 3.3 2.9 6.5 2.9 7.2 0 .7.4 1.7.8 2.2.5.6 1.6 2.8 2.4 5 .9 2.2 2.8 6.7 4.3 10 1.4 3.3 3.1 7.1 3.6 8.5 3.8 9.2 4.5 9.7 18.9 16.3 4.1 1.9 11.3 5.3 16 7.5 4.7 2.2 9.6 4.3 11 4.7 2.8.7 4.8 1.6 17.5 7.5 5 2.2 11.1 5.1 13.7 6.2 4 1.9 4.7 2.7 5.2 5.7.9 5.2 2.6 17.6 3.6 25.1.5 3.6 1.3 9.6 1.9 13.5 2.7 18.9 3.1 24.6 2.1 32.2-2.1 16.9-2.9 23.1-4 29.3-.7 3.6-1.4 9.1-1.7 12.3-.4 5.1-.2 5.9 1.9 7.7 1.2 1 3.5 2.4 5.1 3.1 2.6 1.1 3.6 3.3 1.9 4.1-.4.1-3.4 3.4-6.6 7.3-3.2 3.8-7.3 8.4-9 10-5.3 5.2-11.6 13.2-11.6 14.8 0 .8-.8 3.6-1.9 6.3-1.7 4.6-9.2 28-10.6 33.4-.4 1.4-1.3 3.8-2 5.5-.7 1.6-2.3 6.5-3.5 10.7-1.6 5.4-2.9 8-4.2 8.4-1 .3-1.6.9-1.3 1.3.2.5-.9 4.6-2.5 9.2s-5.4 16.5-8.5 26.4c-3.2 9.9-6.3 19.6-7.1 21.5-.7 1.9-1.7 5.1-2.2 7l-.8 3.5-5.5-.3c-3-.1-9.9-.7-15.4-1.2s-16.1-1.4-23.5-2c-12.9-1-28.4-2.4-41.5-3.6-6.5-.6-6.3-.4-9.8-9.4-.5-1.4-1.9-4.5-3-7s-2.3-5.4-2.7-6.5c-1.1-2.9-3.4-8.2-6.3-14.5-1.3-3-3.4-8-4.7-11-1.2-3-2.8-6.9-3.5-8.5-.7-1.7-2.5-5.9-4-9.5-1.5-3.6-3.1-7.4-3.5-8.5-.4-1.1-1.7-4.1-2.9-6.7-1.2-2.6-2.1-5-2.1-5.3 0-.3-.9-2.7-2.1-5.3-1.2-2.6-2.5-5.6-2.9-6.7-.4-1.1-1.5-3.6-2.3-5.5-.8-1.9-3.1-7.6-5.2-12.5-2-5-4.3-10.4-5-12-2.1-5-6.7-15.8-7.7-18.5-.6-1.4-1.9-4.1-2.9-6.1-1.1-2-1.9-4.4-1.9-5.3 0-.9-.4-2.4-.9-3.4-.6-.9-2-4-3.2-6.7-1.2-2.8-2.6-6-3.2-7.2-1.2-2.6-1-3.8 4.3-23.8 2.2-8.8 4.5-18 5.1-20.5.5-2.5 1.6-6.8 2.5-9.5 3.1-9.8 3.4-11.2 3.4-16 0-2.6-1.3-8.6-2.9-13.4-1.6-4.7-4.1-12.7-5.5-17.6-1.5-5-3.2-10-3.7-11.3-.5-1.3-.9-3.2-.9-4.2 0-1.1-.6-3.4-1.4-5.2-2.4-5.7-5.6-18.2-4.9-18.9.5-.3 6.3-.9 13-1.3 6.7-.3 12.8-.8 13.5-1.1.7-.2 5.4-.7 10.3-1 23.9-1.4 36.6-2.4 37.3-2.9.4-.2 4.8-.6 9.7-.7 4.9-.2 11-.8 13.5-1.5 5-1.2 3.6.8 17.5-26.4 3.2-6.3 6.5-12.3 7.3-13.3.8-.9 1.2-1.7.9-1.7-.4 0 .2-1.5 1.2-3.3 1-1.7 2.3-4.2 3-5.5 1.6-2.9 2.9-2.8 3.7.4zm197.2 9.6c5.7 3.5 11.1 7 12 7.8.9.8 3.8 2.6 6.5 3.9 6.7 3.4 7.7 4.9 3.8 5.7-1.7.4-3.4 1.1-3.7 1.5-.3.5-1.6.9-2.9.9-1.3 0-2.7.4-3 1-.3.5-1.5 1-2.6 1-1 0-2.7.4-3.7.9-.9.5-2.8 1.3-4.2 1.9-1.4.5-4.1 1.7-6 2.5-7.9 3.4-7.5 4.4-7.8-15.6-.1-9.7.1-17.7.5-17.7s5.4 2.8 11.1 6.2zm-22.6 26c-.6.6-1.6.3-2.5-.6-.9-.9-1.9-1.6-2.3-1.6-.4 0-1.6-.7-2.6-1.7-1-.9-2.8-2.1-4.1-2.8-3.4-1.7-2.3-5.2 3.3-10.9 2.8-2.8 5-5.4 5-5.9 0-.6.8-1.6 1.8-2.3 1.6-1.2 1.7-.4 2 11.8.1 7.2-.1 13.5-.6 14zm-270.5-18c4.3 2.3 10.5 5.6 13.8 7.4 3.3 1.7 9.3 4.9 13.3 7 3.9 2.1 7.2 4.1 7.2 4.5 0 .4 1.3 1 2.9 1.4 1.6.3 3.4 1.2 4 1.9 1.1 1.3-3.8 1.9-38.9 4.7-6.9.5-17.5 1.4-23.6 1.9-17.8 1.6-18.6 1.5-20.7-2.2l-1.8-3.1 3.3-2.8c1.8-1.6 3.9-2.8 4.6-2.9.6 0 1.2-.6 1.2-1.4 0-.8.8-1.7 1.8-2 .9-.4 3.7-2.4 6.1-4.6 2.5-2.2 4.7-4 5.1-4 .4 0 2.2-1.5 4.1-3.3 3.3-3.2 7.8-6.5 9.1-6.6.3-.1 4.2 1.8 8.5 4.1zM708 137.9c0 1.6-.4 6.3-.9 10.3-.8 5.6-1.9 22.7-2.1 31 0 1.4-3.5.8-6.6-1.1-1.7-1-4.5-2.2-6.2-2.6-1.8-.3-3.5-1.2-3.9-1.8-.5-.7-2.8-2-5.3-2.9-19.2-7.2-37.5-15.7-36.3-16.8 1.3-1.3 23.7-8 26.5-8 1.5 0 3-.5 3.3-1 .3-.6 1.7-1 3-1s2.6-.4 2.9-.9c.3-.4 2.7-1.4 5.3-2.1 2.7-.6 5.7-1.6 6.8-2.1 3.9-1.8 10-3.8 11.8-3.8 1.2-.1 1.7.7 1.7 2.8zm55 7.2c2.7 1.7 5 3.5 5 4s-1.7 1.7-3.7 2.7c-7.4 3.8-12.9 6.8-17 9.5-2.4 1.5-4.5 2.7-4.8 2.7-.3 0-1.9 1-3.5 2.2-1.6 1.2-3.2 1.9-3.5 1.6-.6-.5 3.2-5.3 11.2-14.3 2-2.2 4.7-5.7 6.1-7.8 1.3-2 3.1-3.7 3.8-3.7.8 0 3.6 1.4 6.4 3.1zm70.4 4.1c-.1 4-.2 9.5-.3 12.1-.1 5.1-2 7-5 4.9-.9-.6-6.5-4-12.4-7.5l-10.8-6.4 3.3-1.3c1.8-.6 4.2-1.6 5.3-2.1 3.1-1.5 17.9-6.7 19.1-6.8.7-.1 1 2.5.8 7.1zm-378.9.5c.9 2.1 2.6 5.8 3.8 8.3 3.1 6.8 7.2 18.8 8.3 24.5.2 1.1 1.3 5.3 2.5 9.2 1.1 4 2.9 10.4 3.9 14.2 1 3.9 2.4 7.9 2.9 9 1.3 2.3 1.4 4.1.4 4.1-.5 0-3.3-2.3-6.3-5.1-8.2-7.6-11.9-10.9-18.5-16.4-3.3-2.8-7.6-6.6-9.6-8.5-3.2-3.1-8.6-7.7-13.6-11.6-1.6-1.2-1.6-1.5-.3-2.7.8-.6 3.7-4.1 6.5-7.7 2.7-3.6 5.8-7.4 6.7-8.5 3-3.6 5.3-6.3 7.7-9.4 1.3-1.7 2.7-3.1 3.1-3.1.4 0 1.5 1.7 2.5 3.7zm326.6 9c1.8 4.5 2.5 6.3 5.9 15.3 1.8 4.7 4.1 10.2 5.2 12.3 2.5 4.7 2.1 4.9-10.8 4.5l-9.9-.3-2.4-4.9c-1.3-2.7-3.4-7.6-4.6-11-1.2-3.4-2.5-6.9-2.9-7.8-.6-1.2.2-2.1 3.1-3.4 2.1-1 5.8-3.1 8.2-4.6 5.6-3.5 6.9-3.5 8.2-.1zm17.1 2.4c2.9 1.6 6.1 3.3 7.1 3.6.9.3 1.7.9 1.7 1.4 0 .5.9.9 1.9.9 1.1 0 2.1.4 2.3.8.2.4 2.5 2 5.1 3.6 4.7 2.7 4.8 2.8 3.1 4.7-.9 1-2.3 1.9-3 1.9-.7 0-1.4.4-1.6.8-.1.4-2.3 2.3-4.8 4.2-2.5 1.9-4.8 3.9-5.1 4.4-1.2 1.6-2.7-.4-4.5-6.2-.9-3.1-2.1-6.1-2.6-6.7-.4-.5-.8-1.8-.8-3s-.4-2.5-.9-3.1c-.9-1-4.2-10.4-3.6-10.4.2 0 2.8 1.4 5.7 3.1zm-45.8 14.1c.9 1.7 1.6 3.9 1.6 4.8 0 1 .6 2.3 1.4 2.9.8.6 1.6 2.1 1.9 3.1.5 1.8 0 2-4.6 1.9-2.9 0-9.7-.6-15.1-1.2-11-1.3-11-1.4-1.6-6.3 3-1.6 7.3-4.1 9.5-5.6s4.3-2.8 4.7-2.8c.3 0 1.4 1.4 2.2 3.2zm98.7 7c22.2 11.8 21.2 11.1 17 12.9-1.7.8-3.1 1.7-3.1 2.1 0 .5-.4.8-1 .8-.5 0-3.8 2-7.4 4.4-3.5 2.4-8.7 5.6-11.7 7.2-2.9 1.6-6.1 3.7-7.1 4.6-1 1-2.5 1.8-3.3 1.8-.8 0-1.5.4-1.5 1 0 .5-.5 1-1.1 1-.6 0-3.4 1.5-6.2 3.3-12.8 8.3-14.9 9-10.7 3.7 1.1-1.4 2-3.1 2-3.8 0-.6.4-1.2 1-1.2.5 0 .7-.7.4-1.5-.4-.8.1-1.7 1-2.1.9-.3 1.6-1.5 1.6-2.5s.5-1.9 1-1.9c.6 0 1-.9 1-1.9 0-1.1.3-2.1.8-2.3.4-.2 3.2-5.3 6.2-11.3 6.5-13.1 10-19.5 10.6-19.5.3 0 5 2.4 10.5 5.2zm-30.9 10c-1.1 1.8-6.2 11.5-11.3 21.5-8.1 15.7-9.6 18-10.9 16.9-.8-.8-5.3-2.6-10-4-4.7-1.5-9.2-3-10-3.3-1.6-.5 1.2-3.3 8-7.8 1.9-1.2 4.4-3.2 5.5-4.2 1.2-1.1 4.5-3.7 7.5-5.8 3-2.1 7.1-5.1 9-6.7 1.9-1.6 4-3.2 4.5-3.6.6-.4 2.5-1.9 4.3-3.5 4.5-3.6 5.8-3.4 3.4.5zm-402.8 4c.9 9.3 1.3 25.6.7 26.6-.3.4-4.4 1.6-9.1 2.6-4.7 1-10.1 2.1-12 2.6-7.9 2-12.5 2.9-12.8 2.5-.4-.4 4.7-7.3 11.3-15.1 2.8-3.3 6.6-7.9 8.5-10.3 1.9-2.3 4.3-5.2 5.3-6.4 1-1.2 2.7-3.6 3.8-5.4 1.1-1.8 2.4-3.3 2.9-3.3s1.1 2.8 1.4 6.2zm16.2-.2c.4 0 1.9 1.1 3.3 2.5 9 8.5 23.4 21.2 28.4 25.1 4.2 3.3 5.5 6.3 2.2 5-.8-.3-7.1-1.2-14.2-2.1-7-.9-15.1-2-17.9-2.6l-5.1-1-1.1-10.7c-.7-5.9-1.2-13.2-1.2-16.2l.1-5.5 2.4 2.7c1.3 1.6 2.7 2.8 3.1 2.8zm303.9 1.1c7.2.6 18.2 1.8 24.5 2.5 6.3.8 13.7 1.5 16.4 1.6 5.4.3 7.2 2.2 3.4 3.7-1.3.5-6.1 3.9-10.8 7.6-4.7 3.6-11 8.5-14 10.8-3 2.3-7.2 5.5-9.2 7.2-2 1.6-6.5 5-9.8 7.5-3.4 2.5-8 6-10.2 7.9-4.4 3.9-5.8 3.3-5.8-2.5 0-2.8-1.9-17.4-5-37.6-.5-3.7-1-7.4-1-8.2 0-2 3.5-2 21.5-.5zm138.4 13.1c-.1 3.5-.4 10.2-.8 15.1l-.6 8.7-4.7-3.7c-2.6-2.1-6.6-5.2-8.8-6.8-2.2-1.7-4.9-3.8-6.1-4.7l-2.1-1.7 3.4-2c1.8-1.1 3.8-2.4 4.4-2.9.5-.5 3.2-2.2 6-3.7 2.7-1.5 5.3-3.1 5.9-3.6 2.5-2.4 3.5-.8 3.4 5.3zm-17.3 24.9c5.7 4.4 10.4 8.3 10.4 8.7 0 .9-3.1 2.9-10.8 6.9-3.4 1.8-8.3 4.4-10.8 5.8-4.7 2.6-6.9 3.2-5.9 1.4.4-.5 1.1-3.4 1.5-6.2.5-2.9 1.1-6.3 1.4-7.7.2-1.4 1-5.8 1.7-9.8.7-3.9 1.4-7.2 1.6-7.2.3 0 5.2 3.6 10.9 8.1zm-23.1-1.9c-.4 2.9-.9 6-1.2 6.8-.3.8-.8 3.3-1 5.5-.2 2.2-.8 5.2-1.4 6.7-.6 1.5-.8 3.1-.5 3.7 1.1 1.7-1.4 2.4-3.2.9-.9-.8-4.2-3-7.2-4.8-3-1.8-5.7-3.5-6-3.9-.3-.4-1.8-1.2-3.3-1.9-2.8-1.2-2.9-3.2-.1-3.2.8 0 1.4-.3 1.4-.8 0-.4 2.1-1.9 4.7-3.2 2.6-1.4 5.6-3.3 6.7-4.3 1.1-.9 2.5-1.7 3.2-1.7.7 0 1.4-.3 1.6-.8.3-.6 5.7-4.1 6.6-4.2.1 0 0 2.4-.3 5.2zm-59 .8c.3.5 1.7 1 3 1s2.7.4 3 1c.3.5 1.9 1 3.6 1 2.2 0 3.4.8 4.8 3.1 2.4 3.9 2.1 4.7-6.8 21.4-4.1 7.6-5.1 8.6-5.1 5.3 0-1.4-.5-3.8-1-5.4-.6-1.6-2.1-7.9-3.4-13.9-1.2-6.1-2.6-11.8-3.1-12.8-.6-1.4-.2-1.7 1.8-1.7 1.4 0 2.9.4 3.2 1zM447 236.1c5.7.6 10.9 1.3 11.3 1.6.5.3 4 .9 7.9 1.3 3.8.4 7.2 1.1 7.5 1.4.4.3-.9 1.9-2.8 3.4s-6.3 5.5-9.9 8.8c-3.6 3.4-8 7.5-9.9 9-1.9 1.6-6.4 5.7-10 9.1-3.6 3.5-6.9 6.3-7.2 6.3-1 0-1.9-8.5-2-18.4 0-5-.4-12.3-.8-16.1-.5-3.9-.6-7.3-.4-7.7.2-.4 1.6-.5 3.1-.3s7.4.9 13.2 1.6zm-26.8 1.9c.1 1.6.2 4.2.4 5.7.1 1.6.5 8.6.9 15.8.3 7.1.8 14 1.1 15.2.6 3.2-.4 2.8-5.7-2-2.6-2.3-9.2-7.8-14.8-12.1-5.5-4.3-10.1-8.4-10.1-8.9 0-.6-.3-.7-.7-.4-.3.4-2.6-1.1-4.9-3.3-2.4-2.2-4.8-4-5.4-4-2.8 0 .5-1.9 4.3-2.5 2.3-.4 6.5-1.3 9.2-2 10.4-2.9 17.1-4.3 21.3-4.4 4-.1 4.2 0 4.4 2.9zm341.8-.6c0 1.2 1.3 7.9 3 14.7 1.6 6.8 3.5 14.6 4.1 17.2.6 2.7.9 5.1.5 5.4-.5.5-5.6-1.4-9.8-3.7-1-.6-2.6-1-3.7-1s-2.1-.3-2.3-.8c-.4-.8-6.6-4.2-7.9-4.2-.4 0-3.2-1.1-6.1-2.4-2.9-1.3-6.3-2.7-7.5-3.1-3.1-.9-2.9-1.5 1.7-5 2.2-1.7 5.5-4.3 7.3-5.8 2.8-2.5 7.8-6.2 12.5-9.2.9-.6 2.5-1.8 3.6-2.8 2.7-2.4 4.6-2.1 4.6.7zm-382.3 18.7c2.6 2.2 7 5.9 9.7 8.2 2.7 2.3 5.4 4.7 6 5.2.6.6 2.7 2.2 4.6 3.5 1.9 1.3 3.7 2.7 4 3 .3.3 2.5 2.1 5 4.1 2.5 2 5.6 4.6 6.8 5.7 1.3 1.2 2.9 2.3 3.5 2.6.7.2-1.5 3-4.8 6.1-14.3 13.4-25.3 23.6-30 27.6-2.7 2.4-6.9 6.4-9.3 8.7-2.4 2.4-4.5 4.2-4.7 4-.6-.6 2.5-80.9 3.1-81.9.8-1.3.8-1.3 6.1 3.2zM478 255c0 1.1-.4 2.8-.9 3.8-.8 1.5-7.1 27.2-8.6 34.9-.4 1.8-1.1 3.5-1.6 3.8-1.6 1-1 7.4 1.1 11.7 2.2 4.6 2.5 6.1 1.1 5.6-1-.3-10.2-8-13.9-11.6-1.2-1.2-2.6-2.2-2.9-2.2-.7 0-8.8-6.4-12.2-9.7l-2.4-2.4 4.1-3.9c2.3-2.2 4.3-4 4.6-4 .2 0 2.5-1.9 4.9-4.3 2.5-2.3 7.7-7.2 11.7-10.7 4-3.6 8.6-7.9 10.4-9.7 3.7-3.7 4.6-4 4.6-1.3zm324.6-1.1c.5.5 2.5 1.7 4.4 2.8 5.4 2.8 18 11.4 18 12.1 0 .4-1.2 1.5-2.8 2.4-5.1 3.2-6.6 4.3-8.6 6.1-1.2 1.1-4.1 3.3-6.5 4.9l-4.4 3.1-6.6-1.3c-10.8-2-11-2.4-5.9-11.6 2.4-4.4 5.6-10.5 7.1-13.7 2.7-5.7 3.5-6.5 5.3-4.8zm69.5 20.1c-.6 6.9-1.4 17.6-1.7 23.7-.5 8.2-1 11.3-1.9 11.3-.8 0-1.5-.3-1.7-.8-.1-.4-3.3-2.7-7-5.2-3.8-2.5-6.8-4.8-6.8-5.3 0-.4-.6-.7-1.3-.7-.7 0-2.2-.8-3.3-1.8-1.1-.9-4.6-3.5-7.8-5.7s-6.2-4.2-6.6-4.5c-.4-.3-1-2.1-1.3-4-.7-3.4-.6-3.6 4.6-6 2.8-1.3 5.9-3 6.7-3.6.8-.6 4.9-2.9 9-5 4.1-2.2 7.7-4.1 8-4.4.3-.3 2.5-1.6 5-2.9 2.5-1.3 5-2.8 5.5-3.3 1.6-1.5 1.8 4.5.6 18.2zm-511.2 28.2c-1.1 28.2-1.8 33.8-3.6 29.1-.4-.9-3.8-7.1-7.6-13.7-3.9-6.7-7.9-13.7-9-15.6-1-1.9-2.3-3.9-2.8-4.5-1.4-1.5-1-5.5.6-6.1.8-.4 1.5-1.1 1.5-1.6s1.6-2.9 3.5-5.2c1.9-2.4 3.5-4.7 3.5-5.3 0-.5 1.1-2 2.5-3.3 1.4-1.3 2.5-2.9 2.5-3.7 0-.7.5-1.3 1-1.3.6 0 1-.7 1-1.5s.8-2.3 1.8-3.3c.9-.9 2.6-3.1 3.7-4.7l2-3 .3 6.5c.2 3.6-.2 20.3-.9 37.2zm531-33.9c1.1 2.1 1.1 3 0 5.6-.8 1.7-1.7 3.1-2.1 3.1-.5 0-.8.9-.8 1.9 0 1.1-.4 2.1-.8 2.3-.4.1-1.8 2.4-3 5-2.6 5.6-4.7 6.4-3.8 1.5.3-1.7.8-7.5 1.1-12.7.3-5.2.8-11.1 1.2-13l.5-3.5 3.2 3.7c1.7 2 3.8 4.8 4.5 6.1zm-158.5 3.2c4.2 1.9 8.1 3.5 8.6 3.5.6 0 1.8.4 2.8.9.9.6 3.7 1.8 6.2 2.9 2.5 1.1 6.3 2.7 8.5 3.7l4 1.7-3.5 1.6c-1.9.8-5 2.1-6.7 2.9-5.4 2.2-9.5 4-14.5 6.2-2.6 1.1-5 2.1-5.3 2.1-.5 0-7.5 3-12.2 5.3-3.1 1.4-3.5.7-2.4-4.4.6-2.4 1.1-6.1 1.1-8.1s.4-3.9.9-4.2c.4-.3 1-3.9 1.3-7.9.5-7.4 1.1-9.7 2.8-9.7.5 0 4.3 1.6 8.4 3.5zm171.2 11.8c.8.4 1.4 1.4 1.4 2.2 0 .8 1.4 2.4 3 3.7 1.7 1.2 3 3 3 3.9 0 1 1.8 3.3 4.1 5.3 4 3.4 4.1 3.6 2.8 6.5-.8 1.7-1.7 3.1-2.1 3.1-.5 0-.8.8-.8 1.9 0 3-2.9 9.1-4.7 9.8-.8.3-2.4.1-3.4-.5-1-.7-4.1-1.2-6.8-1.2-2.8 0-5.2-.4-5.5-.9-.3-.4-3.1-1.1-6.2-1.4-7.7-.8-7.6-.6-3.4-7.5 1.1-1.8 4.8-8.5 8.2-15 6.1-11.7 8-14.2 8.7-11.9.2.7 1 1.6 1.7 2zm-82.2 2.9c.3.7.7 8.4 1 17l.6 15.7-3.3 3.1c-1.7 1.6-3.8 3-4.4 3-.7 0-1.3.4-1.3.9 0 .6-1.8 2-4 3.2-2.2 1.3-4 2.6-4 3 0 .9-6.3 4.9-7.8 4.9-1 0-1.8-7.3-2.6-24.8l-.5-8.3 5.2-4c2.9-2.2 7-5.6 9.3-7.5 4.2-3.7 9.4-7.2 10.7-7.3.4-.1.9.5 1.1 1.1zm-35.4 6.3c.8.2 2.1.4 2.8.4 2 .1.6 1.8-5.5 6.2-3 2.3-6.4 5-7.4 6-1.1 1.1-2.5 1.9-3.3 1.9-1 0-.6-1.6 1.6-5.8 5.3-9.9 5.8-10.5 8.1-9.7 1.2.3 2.9.8 3.7 1zM761 306c-2.7 5.1-5 9.7-5 10.2 0 .4-.4.8-.8.8s-1.3 1.3-1.9 3c-.6 1.6-1.8 3-2.7 3-2.7 0-26.6-8.9-26.6-9.9 0-.4 3.3-2 7.3-3.6 3.9-1.5 9-3.6 11.2-4.6 11.1-5.1 23-9.6 23.3-8.9.2.4-2 4.9-4.8 10zm74.8-7.3c1.5.9 3.8 2.7 5.2 3.9 1.4 1.2 3.7 2.8 5.1 3.5 1.5.8 5.9 3.7 9.8 6.6 4 2.8 7.8 5.4 8.4 5.6.7.3-5.5 7-13.8 15-8.2 8-15.1 14.4-15.2 14.3-.2-.1-.7-10.1-1.3-22.2-.5-12-1.2-23.4-1.5-25.2-.7-3.7-.4-3.8 3.3-1.5zm-399.4 3.5c17.4 13.8 28.4 22.7 30.6 24.8.8.8 2.8 2.3 4.4 3.3 3.5 2.3 3.9 1.9-12.4 12.8-6.9 4.6-12.7 8.6-13 8.9-.6.7-17.3 12-20 13.5-1 .6-2.5 1.7-3.4 2.4-1.4 1.2-1.6 1-1.6-1 .1-1.3.6-4.4 1.1-6.9 1.1-4.5 2-10.1 3.8-22 .6-3.6 1.5-9.2 2.1-12.5 1.1-5.9 2.5-14.3 3.6-21.8.4-2 .9-3.7 1.3-3.7s1.9 1 3.5 2.2zm-15.7 4.5c-1.1 4-2.7 12.3-3.7 19.3-.6 4.1-1.4 9.5-2 12-.5 2.5-1.3 7.4-1.9 11-2.9 18.1-3.5 21-5 21-1.4 0-14.1-8.1-16.9-10.7-.6-.6-2.1-1.5-3.2-1.8-1.1-.3-2-1.1-2-1.6s-.5-.9-1-.9c-1.8 0-10.9-6.5-10.7-7.5.1-.6 5.4-5.8 11.7-11.5 6.3-5.8 12.4-11.4 13.6-12.5 1.2-1.1 5-4.5 8.5-7.5 3.4-3 7.4-6.7 8.7-8.3 2.9-3.1 4.6-3.5 3.9-1zm366.7 23.4.7 10.7-12.1-6c-6.6-3.3-12-6.1-12-6.3 0-.3 10.1-8 17.9-13.6l3.6-2.5.6 3.5c.4 2 1 8.4 1.3 14.2zm105.6-1.4c3.6.8 7.9 1.7 9.5 2 5.6.9 5.6.9 2.5 6.9-1.7 3.1-3 6.2-3 6.8 0 1.9-2.8 7.2-4.5 8.6-.8.7-1.5 2.5-1.5 4 0 3.1-2.3 8.2-4.5 10-.8.7-1.5 2.1-1.5 3.1 0 4.3-1.8 1.5-2.5-3.9-1.8-14.2-2.5-18.9-4.2-27.2-2.9-14.2-3-13.4.3-12.5 1.6.4 5.8 1.4 9.4 2.2zm-163.5-.7c.3.5 1.5 1 2.5 1s3.1.5 4.7 1.2c1.5.6 4.8 1.8 7.3 2.7 4.4 1.6 4.5 1.7 5.3 7.1.4 3 1.2 7.7 1.7 10.5.8 4.3 1.8 11.6 3.4 25.1.4 2.9-1 4.6-17.2 21.1-55.8 57-69.1 70.3-70 70.3-.6 0-2.7 1.7-4.6 3.7l-3.6 3.8 1.3-4.5c4.6-15.3 6.2-19.6 7.4-20.7.8-.6 3.2-6.4 5.2-12.7 2.1-6.4 4.1-12 4.5-12.3.3-.3.6-1.5.6-2.5s.4-2.6.9-3.6c.5-.9 1.4-3.7 2.1-6.2.7-2.5 1.6-5.3 2.1-6.2.5-1 .9-2.7.9-3.7 0-1.1.5-2.3 1-2.6.6-.3 1-1.5 1-2.6 0-1 .4-2.7.9-3.7.5-.9 1.5-3.7 2.2-6.2.7-2.5 1.6-4.9 2.1-5.4.4-.6.8-1.8.8-2.8 0-1 .4-2.6.9-3.6.5-.9 1.5-3.7 2.2-6.2.7-2.5 1.6-4.9 2.1-5.5.4-.5.8-1.8.8-3 0-1.1 1.7-3.8 3.6-6 2-2.2 6.8-7.5 10.7-11.9 4-4.3 7.6-8.6 8.1-9.4 1.3-2.2 5.9-6.1 7.3-6.2.6 0 1.5.4 1.8 1zm141.8 7.5c.3 2.2 1 8.5 1.7 14 .6 5.5 1.6 11.6 2 13.5.5 1.9 1.2 5.3 1.5 7.5.3 2.2.8 5.7 1.1 7.7.3 2.1.4 3.8.1 3.8-.3 0-3-1.3-6-2.9-3.1-1.6-5.7-2.7-6-2.5-.2.2-3.3-1-6.8-2.8-3.5-1.8-6.6-3.3-6.9-3.3-2.8-.5-15-7.1-15-8.1 0-2.4 31.9-32.9 33.1-31.6.4.4.9 2.5 1.2 4.7zm-47.4 4.7c-.1 3.5.2 8.4.6 10.9.5 3.1.3 4.9-.4 5.4-1.1.6-20.1-7.9-20.1-9 0-.3 1.7-1.6 3.8-3 2-1.4 6.2-4.3 9.2-6.5 3-2.2 5.8-4 6.3-4 .4 0 .7 2.8.6 6.2zm-50.2 6.3c6.3 3 11.8 5.5 12.1 5.5.4 0 6.1 2.7 12.7 5.9s13.5 6.5 15.3 7.2c3.5 1.5 4.2 3.3 1.5 4.3-2 .6-14 7.4-21.7 12.1-2.6 1.6-9.1 5.6-14.3 8.9-5.3 3.3-9.8 5.5-10.3 5s-1.3-5.2-1.9-10.4c-.7-5.2-1.5-12.4-2-16-.5-3.6-1.4-10.1-2.1-14.5-.6-4.4-1.3-9.2-1.6-10.8-.3-1.5-.2-2.7.2-2.7s5.8 2.5 12.1 5.5zm-296.3 1.2c-.1 1.6-1 12.9-1.9 25.3-.9 12.4-1.8 22.6-2 22.8-.4.4-37.6-1.8-53-3.2l-13-1.2 8.5-5.5c4.7-3.1 9.1-6.3 9.9-7.2.7-.9 1.9-1.7 2.6-1.7.7 0 2.4-1.1 3.9-2.5s3.4-2.5 4.2-2.5c.7 0 1.4-.4 1.4-.8 0-.5 1.2-1.5 2.7-2.3 1.6-.8 5-3.1 7.8-5.1 2.7-2.1 5.5-3.8 6.2-3.8.6 0 1.3-.4 1.5-.8.4-1 19.8-14.2 20.8-14.2.4 0 .6 1.2.4 2.7zM493 369c.4.9 2.6 6.3 4.9 12 2.3 5.8 4.6 11.3 5.1 12.2 2.5 4.4 1.6 4.9-8.2 4.2-5.1-.4-9.6-.9-9.9-1.3-.5-.5-.2-7.7 1.5-29.6.3-3.9.6-7.7.6-8.5.1-.8 1.3 1 2.7 4 1.4 3 2.9 6.2 3.3 7zm-105.1 1c6.5 3.6 14.9 10.3 14.5 11.5-.3.7-2.3 2.1-4.4 3.1-2.2 1.1-4 2.2-4 2.6 0 .5-.8.8-1.7.8-1.7 0-3-1.9-13.5-20.9l-3.1-5.4 4.8 3.4c2.6 1.9 5.9 4.1 7.4 4.9zm437.9 17.4c0 6.3.2 11.8.5 12.3s.7 6.3.7 12.9c.2 13.9 1.4 13.2-12.9 7.2-14.8-6.2-17.3-7.2-22.1-8.8-1.9-.7-5.4-2.1-7.7-3.1-2.4-1.1-5-1.9-5.9-1.9-2.8 0-1-2.1 4.5-5.1 3-1.7 7.3-4.3 9.7-6 2.3-1.6 4.7-2.9 5.3-2.9.6 0 1.1-.3 1.1-.8 0-.4 2.1-1.8 4.8-3.2 2.6-1.3 6.5-3.7 8.8-5.2 4.8-3.4 10.4-6.5 12.1-6.7.8-.1 1.1 3.1 1.1 11.3zm12.7-10.4c.3.5 1.5 1 2.6 1 1 0 1.9.4 1.9 1 0 .5.9 1 2 1s2 .4 2 .9 1.2 1.1 2.8 1.4c2.5.5 9.3 4.1 16.7 8.7 1.7 1 4 1.9 5.3 1.9 1.2.1 2.2.6 2.2 1.1 0 .6-1 1.4-2.2 1.9-1.3.5-3.4 2.1-4.7 3.5-1.4 1.4-2.8 2.6-3.3 2.6s-2.1 1.3-3.5 3c-1.3 1.6-2.9 3-3.4 3-.8 0-3.3 2-9.7 7.7-1.4 1.3-2.9 2.3-3.3 2.3-.5 0-1.7 1-2.9 2.2-1.1 1.2-2.2 1.9-2.5 1.7-.2-.3-.7-8.8-1-19-.3-10.1-.8-20.3-1-22.7-.4-3.9.6-5.5 2-3.2zm-81.2 20.2c.3 1.8 1.1 8.5 1.7 14.8.6 6.3 1.6 16 2.1 21.5 2.2 20.4 2.3 19.9-2.7 26.9-2.4 3.5-4.4 6.7-4.4 7 0 .3-3.5 5.9-7.7 12.4-4.3 6.4-8 12.1-8.2 12.7-.2.5-1 1.8-1.8 2.7-1.8 2.1-5.2 7.7-5.9 10-.4 1-1 1.8-1.5 1.8s-.9.5-.9 1c0 1.2-4.8 8.9-6.5 10.5-.5.5-1.7 2.3-2.5 3.9-2.9 5.7-3.5 6.6-4.2 6.6-.5 0-.8.5-.8 1 0 .6-2.2 4.4-5 8.6-2.7 4.1-5 7.9-5 8.3 0 .4-1.2 1.9-2.7 3.3-2.2 2-4.3 2.7-9.8 3.3-8.5.8-18.3 1.9-33.5 3.6-6.3.7-13.7 1.3-16.5 1.3-7.8 0-41.2-2.4-49-3.5-3.8-.5-9.2-1.2-12-1.5-8.5-.8-9.5-1.2-9.5-3.9 0-1.3-.4-2.7-1-3-.5-.3-1-2.1-1-4s-.4-3.7-1-4c-.5-.3-1-1.5-1-2.6 0-1-.4-2.7-.9-3.7-.5-.9-1.4-3.7-2.1-6.2-.6-2.5-2-7.3-3.1-10.6-1-3.4-1.9-6.9-1.9-7.8 0-.9-.4-2.4-.9-3.4-1.2-2.4-3.1-8.6-3.1-10.2 0-1 2.1-1.2 10.3-.7 8.8.6 47.9 3.8 61.7 5.2 22.9 2.2 21.2 2.6 33.1-8.6 14.7-13.9 43.9-43.1 43.9-44 0-.5.4-.9.8-.9.5 0 2-1.2 3.5-2.8 11.1-11.8 47.2-48.2 47.8-48.2.4 0 .9 1.5 1.2 3.2zm-316.4 7.4c.8.2 7.7.7 15.5 1 7.8.3 14.7.7 15.4.9.9.4 1.1 2.5.7 8.7-1.1 15.5-1.6 18.8-2.9 18.8-1.5 0-10.2-4.6-12.6-6.6-.8-.7-2.7-1.6-4.2-1.9-1.6-.4-2.8-1-2.8-1.4 0-.3-2.7-1.9-6-3.5s-6-3.3-6-3.7c0-.4-1.2-1-2.6-1.3-2.2-.6-10-5.1-11.4-6.6-.3-.4-2.6-1.4-5.2-2.4-2.7-1-4.8-2.2-4.8-2.6 0-.9 24.1-.3 26.9.6zm59.1 4c0 .9-16.1 18.9-17.3 19.3-.7.2-.8-1.7-.4-5.9.4-3.5.7-8 .7-10.1V408h8.5c4.7 0 8.5.3 8.5.6zm15.6 15.1c2.1 5.4 4.1 10.2 4.6 10.7 1.6 2 .7 2.5-5.4 3-14.7 1.3-25.8 1.7-25.8.9 0-.4 1.8-2.8 4.1-5.3 2.2-2.5 6.1-7 8.7-10 2.6-3 5.4-6.2 6.2-7.1.8-1 2-1.8 2.7-1.8.6-.1 2.8 4.3 4.9 9.6zm265.4-5.5 2.5 1-2.1 1.6c-1.2.9-3.4 2.7-5 3.9-4.6 3.7-5.4 3.1-5.4-4.2V414l3.8 1.6c2 .9 4.8 2 6.2 2.6zm21 8.3c.9.8 2.3 1.5 3.1 1.5.8 0 1.9.4 2.5.8.5.5 3.7 1.7 7.2 2.7 8.7 2.6 9.1 3.4 3 7.5-9.2 6.3-9.2 6.4-15.6 4.5-5.6-1.7-6.9-2.1-12.5-4.4-1.5-.6-3.4-1.1-4.2-1.1-.7 0-2.6-.5-4.1-1l-2.7-1.1 3.9-2.9c2.1-1.6 4.2-3 4.5-3 .4 0 2.2-1.4 4-3.1 2.7-2.5 3.9-3 6.3-2.5 1.6.4 3.7 1.3 4.6 2.1zM777.5 447c.3.5 1.9 1 3.5 1s3.2.4 3.5 1c.3.5 1.6 1 2.8 1 2.3 0 9.2 2.2 10.2 3.2.8.8-11.2 10.8-12.9 10.8-.9 0-2.4-1.6-8.2-8.6-3.9-4.7-4.6-9.4-1.5-9.4 1.1 0 2.3.4 2.6 1zm-247.7 11.2c2.3 5.7 4.2 10.6 4.2 11 0 1-3.2-.2-4.5-1.6-.5-.6-4.1-2.7-7.8-4.6-9.1-4.6-19.6-10.2-22.6-11.9-3.9-2.2-1-2.8 13.2-3l13.2-.2 4.3 10.3zm242.7 10c1.4 1.8 3.4 4.2 4.4 5.3 1.6 1.9 2.7 5.1 10.3 29.5 1.7 5.2 3.8 11.3 4.8 13.5.9 2.2 2.8 10.1 4 17.5 1.2 7.4 2.6 15.7 3.1 18.5 1.1 6.4.6 7.7-3.3 9.3-1.8.8-12.3 5.8-23.3 11.2-11 5.4-28.5 13.9-39 19-10.4 5-19.7 9.6-20.5 10.1-.8.5-2.6 1.4-4 1.9-1.4.6-4.2 1.9-6.3 3-2.2 1.1-4.5 2-5.3 2-.8 0-1.4.3-1.4.8 0 .4-1.5 1.3-3.2 2.1-1.8.7-7.6 3.4-12.8 6-5.2 2.6-10.7 5.1-12.2 5.5-4.3 1-3.5-1.6 1.5-4.7 1.5-1 2.7-2.4 2.7-3.2 0-.8.3-1.5.8-1.5.4 0 1.3-1.3 2-2.8.6-1.6 2-3.7 3-4.8.9-1 2.3-3.1 2.9-4.7.7-1.5 1.7-2.7 2.3-2.7.5 0 1-.5 1-1.1 0-.6 4.1-7.2 9-14.5 5-7.4 9-13.8 9-14.3s.7-1.4 1.5-2.1c.9-.7 2.3-2.8 3.1-4.6.9-1.9 2-3.4 2.5-3.4s.9-.6.9-1.3c0-.7 2.3-4.6 5-8.6 2.8-4 5-7.5 5-7.8 0-.3 2.6-4.5 5.8-9.3 3.1-4.9 7.9-12.4 10.6-16.7 2.7-4.3 6.8-10.7 9.1-14.3 2.3-3.6 7-11 10.5-16.5 11.2-17.9 12.3-19.5 13.1-19.5.4 0 1.9 1.5 3.4 3.2zm-229.1 24c2.8 9.2 10.2 35.5 11.1 39.3.6 2.7 1.4 5.7 1.7 6.5 1.5 3.7 5.7 18.7 6 21 .3 2.4.8 2.6 15.3 4.8 37.6 5.7 68.2 6.1 106.5 1.2 4.1-.5 7.6-.8 7.8-.5.4.4-2.6 5.3-4.5 7.3-.6.6-1.5 2.1-1.8 3.2-.3 1.1-1 2-1.5 2s-1.2.9-1.5 2c-.3 1.1-1.2 2.6-1.8 3.2-.7.7-3.4 4.7-6.1 8.8-2.7 4.1-6.2 8.6-7.8 10-1.5 1.4-4.3 4.8-6.1 7.7-1.7 2.8-5.6 8.6-8.4 12.8-2.9 4.2-5.3 8-5.3 8.5s-.4 1-.8 1.2c-.4.1-2.3 3-4.1 6.3-1.9 3.3-7 11.4-11.4 18-4.3 6.6-8.3 13-8.8 14.3-.5 1.2-1.3 2.2-1.9 2.2-.5 0-1 .7-1 1.5s-.4 1.5-1 1.5c-.5 0-1 .6-1 1.4 0 .8-.3 1.6-.7 1.8-1 .4-5.3 6.5-5.3 7.3 0 .7-5.9 9.6-6.9 10.5-.3.3-1.2 1.7-2 3.2-.8 1.6-1.8 2.8-2.3 2.8-.4 0-.8.5-.8 1.1 0 .7-3.6 6.5-8 13.1-4.4 6.5-8 12.3-8 12.8s-.8 1.5-1.8 2.2c-.9.7-2.6 3-3.7 5.1-1.1 2-2.3 3.7-2.7 3.7-.5 0-.8-.1-.8-.3 0-.1-.5-4-1.1-8.7-.5-4.7-1.5-12.6-2-17.5-.6-5-1.5-12.2-2-16-.5-3.9-1.3-10.6-1.8-15-.8-7.3-3.3-26.9-4.7-37-.3-2.2-.9-7.4-1.4-11.5-.5-4.1-1.4-11.6-2-16.5-2.4-19.4-3-24.3-4-32.5-2.7-22.9-5-36.2-9.5-53.4-1.4-5.4-2.5-10.9-2.5-12.2 0-1.2-.4-2.6-1-2.9-.5-.3-1-2.1-1-4s-.4-3.7-1-4c-.5-.3-1-2.1-1-4s-.4-3.7-1-4c-1.9-1.2-1.1-6.2 1.3-7.8 2.7-2 3.7-2.1 4.1-.5zm-10.5 30c1.2 5.1 2.4 10 2.5 10.8.2.8.6 2.6.9 4 .4 1.4.9 3.8 1.2 5.5.2 1.6.9 5 1.5 7.5s1.8 10.8 2.6 18.5c.9 7.7 2 16.2 2.5 19 .5 2.7 1.1 7.5 1.4 10.5.3 3 .9 8.6 1.5 12.5.5 3.8.9 7.4 1 7.9 0 .8-3.1-1.7-13.5-10.9-3.3-2.9-7.3-6.4-8.9-7.6-1.6-1.3-4.5-3.8-6.5-5.7-2-1.8-5.3-4.5-7.3-5.9-2.1-1.4-3.8-3.1-3.8-3.7 0-1.9 2.1-9 3.6-12.3.8-1.7 1.4-3.8 1.4-4.5 0-1.5 3.2-11.5 4.9-15.3.5-1.1 1.4-4 2.1-6.5.6-2.5 1.6-5.3 2.1-6.2.5-1 .9-2.9.9-4.2 0-1.4.5-2.8 1-3.1.6-.3 1-1.5 1-2.6 0-1 .4-2.7.9-3.7 1.5-2.9 3.1-8.7 3.1-11 0-5 1.8-1.6 3.9 7zm-28.6-1.5c-1 1.5-2.5 3.9-3.1 5.3-.7 1.4-2.5 4.7-4.1 7.5-1.5 2.7-4.7 8.6-7.1 13-2.4 4.4-4.6 8.2-4.9 8.5-.3.3-1.9 3-3.4 6s-4.4 8.4-6.4 12c-1.9 3.6-4.9 9.1-6.4 12.2-1.6 3.1-3.4 6-3.9 6.3-1.5.9-1.2 6.1.3 7.4 1.4 1.1 13.6 8 19.2 10.9 1.7.8 4.1 2.3 5.5 3.2 1.4 1 6.5 3.9 11.5 6.5 4.9 2.7 10.3 5.6 12 6.5 1.6.9 5.7 3.2 9 5.1 3.3 1.8 6.2 3.7 6.3 4.1.2.4 1.2.8 2.2.8 1 0 2 .3 2.2.7.3.7 2.8 2.1 11.9 6.8 1 .5 1.9 1.3 1.9 1.7 0 .5.6.8 1.4.8.7 0 1.9.6 2.5 1.4 1.2 1.4 3.9 19.9 6.1 40.6.6 5.2 1.4 12.6 1.9 16.5 1.7 12.9 3.2 23.9 4.1 32 2.9 24.3 3 24.7 7.9 24.3 3.2-.3 4.1-1 8.4-7.3 2.6-3.9 5.6-8.6 6.7-10.5 1.1-1.9 3.8-6 6-9 2.3-3 5-7.3 6.1-9.4 1.2-2.2 2.6-4.5 3.3-5.2.6-.7 2.5-3.5 4.1-6.3 1.7-2.8 3.3-5.1 3.8-5.1.4 0 .7-.6.7-1.3 0-.7.8-2.2 1.8-3.3.9-1 2.3-3.1 3.1-4.7.8-1.5 1.8-2.7 2.3-2.7.4 0 .8-.4.8-1 0-.5 3.5-6.2 7.8-12.7 4.3-6.5 12-18.1 17.1-25.8 8.1-12.4 9.8-14.4 13.9-16.4 2.6-1.3 5.9-2.9 7.4-3.7 1.4-.8 3.2-1.4 3.9-1.4.7 0 7.6-3.1 15.3-6.9 7.8-3.8 20.4-10 28.1-13.6 7.7-3.7 20.1-9.6 27.5-13.2 25.9-12.4 47.8-23 51.5-25 1.1-.6 6.1-3.1 11-5.5l9-4.3-.1-6c-.1-3.3-.6-8.7-1.2-12-2.5-13.5-3.3-18.8-2.8-19.2.5-.5 5.2 2.3 8.3 5 1.2 1.1 3.1 2.5 4.1 3.1 3.5 2 9.9 6.4 11.3 7.8.8.7 2.2 1.7 3 2.3 8.9 5.6 17.9 12.1 17.9 12.7 0 .4.5.8 1.1.8.9 0 9.3 5.7 21.9 14.9 1.9 1.4 6.4 4.6 10 6.9 3.6 2.4 6.7 4.8 6.8 5.3.2.5.8.9 1.3.9.6 0 4 2.1 7.7 4.7 3.7 2.5 8.1 5.6 9.7 6.7 1.7 1.2 3.2 2.4 3.3 2.8.2.5.8.8 1.3.8s1.7.7 2.7 1.6c1.8 1.6 7.7 6 10.8 8.1 1.9 1.3 9.3 6.4 21.4 14.7 3.6 2.4 7.6 5.4 8.9 6.5 1.3 1.2 3 2.1 3.8 2.1.7 0 1.6.6 1.9 1.4.3.8 1.9 2 3.5 2.6 1.6.7 2.9 1.5 2.9 1.9 0 .3 1.7 1.7 3.8 3.1 2 1.4 3.9 2.7 4.2 3 .3.3 1.3.9 2.2 1.5 5.4 3.2 17.8 12.1 17.8 12.7 0 .5.6.8 1.3.8.6 0 3.1 1.5 5.4 3.3 2.3 1.7 5.4 4.1 6.9 5.1l2.7 1.9-2.4 1.8c-1.3 1-3.1 1.9-4.1 1.9-.9 0-1.8.4-2 .9-.4 1.3-28.9 16.3-42.8 22.6-1.9.8-4.2 2-5 2.5-3.8 2.2-12.6 6-14.1 6-.9 0-2.2.7-2.9 1.5-.7.8-1.7 1.5-2.2 1.5-.5 0-3.4 1.1-6.4 2.5-3 1.4-5.9 2.5-6.4 2.5-.6 0-1.8.4-2.8.9-5.1 2.6-11.2 5.1-15.2 6.2-2.5.7-4.9 1.6-5.5 2.1-.5.4-1.8.8-3 .8s-2.5.4-3 .8c-.6.4-2.8 1.4-5 2.1-2.2.7-4.9 1.6-6 2.1-1.1.4-4 1.4-6.5 2.1-2.5.7-5.6 1.9-7 2.6-1.4.7-3 1.3-3.6 1.3-.6 0-4.9 1.1-9.5 2.5-9.2 2.8-12.3 3.7-18.6 5.4-4 1-5.8 1.5-16 4-2.1.6-6.6 1.7-10.1 2.6-5.9 1.5-10.4 2.5-21.2 4.4-2.5.5-8.1 1.6-12.5 2.6s-8.7 1.7-9.5 1.7c-.8-.1-3.3.3-5.5.8s-6 1.2-8.5 1.4c-2.5.3-9.4 1.1-15.5 2-24.2 3.2-30.9 3.9-53 5.1-29.1 1.5-70.4 1.1-95-1.1-10.4-.9-20.6-1.8-22.5-1.9-1.9-.2-8.9-1-15.5-1.9-11.4-1.6-17.4-2.5-29.2-4.7-2.9-.5-7.7-1.3-10.5-1.8-14.9-2.6-59.8-13.4-63-15.1-1-.6-2.7-1-3.7-1-1.1 0-2.3-.5-2.6-1-.3-.5-1.6-1-2.9-1-1.2 0-5.6-1.2-9.7-2.6-4.1-1.4-8.7-3-10.4-3.4-5.9-1.6-24-8.2-25-9.1-.5-.5-1.7-.9-2.7-.9-1 0-2.6-.4-3.6-.9-1.8-.9-6.2-2.8-9.9-4.2-1.3-.5-3.4-1.4-4.8-1.9-1.4-.6-3.5-1.4-4.7-1.9-1.3-.5-3.9-1.6-5.8-2.4-1.9-.8-5.3-2-7.5-2.7-2.2-.7-4.6-1.7-5.3-2.3-2.2-1.7-10.5-5.7-11.9-5.7-.7 0-1.3-.5-1.3-1 0-.6-.7-1-1.6-1-.9 0-4.2-1.3-7.3-2.9C329 697.5 320 693 312 689c-8-3.9-14.9-7.5-15.3-7.9-.8-.8 2.8-4.2 11-10.1 2.6-1.9 5.4-4 6.1-4.7.7-.7 2.6-2 4.2-3 1.7-.9 3-2 3-2.4 0-.4 1.7-1.8 3.8-3 2-1.3 4.3-2.9 5.1-3.7.8-.8 3-2.4 5-3.7 2-1.2 4.6-3.2 5.8-4.4 1.2-1.2 2.5-2.1 2.7-2.1.6 0 21.7-15.8 22.6-16.9.3-.3 1.2-1.1 2.1-1.6 3.7-2.3 7.7-5.2 11.9-8.6 2.5-2 7-5.4 10-7.4 3-2.1 5.9-4.2 6.5-4.7 4.6-3.9 15.7-11.8 16.5-11.8.5 0 1-.4 1-.9s2.6-2.8 5.7-5.2c3.2-2.4 7.3-5.8 9.1-7.4 1.9-1.7 4.1-3.4 5-3.9.9-.6 3.3-2.4 5.2-4.2 4.6-4.2 6.8-6 17-14.1 4.7-3.7 8.7-6.9 9-7.2.3-.4 2.5-2.2 5-4.1 4.7-3.6 6.7-5.2 10.3-8.3 1.2-1.1 3.9-3.3 6.1-5 2.1-1.8 7.2-6 11.4-9.4 4.2-3.5 7.8-6.1 8-5.8.2.2-.4 1.6-1.5 3.2zm12.3 3c-1 3.2-2.4 7.4-3.1 9.3-.8 1.9-3.5 10-6.1 18-2.5 8-5.5 17.2-6.6 20.5-2.3 6.9-4.8 16.2-4.8 17.5 0 .5 1.2 1.6 2.8 2.4 1.5.8 4.3 2.9 6.3 4.8 4.2 3.9 9.1 8.1 14.9 12.8 2.4 1.9 5.3 4.4 6.4 5.5 1.2 1.2 5.6 4.9 9.8 8.3 4.3 3.5 8 6.7 8.4 7.3.9 1.4-3.5.1-5.6-1.6-.8-.7-3.5-2.4-6-3.8-2.5-1.3-6.7-3.7-9.5-5.2-2.7-1.6-7.3-4-10.1-5.5s-6.4-3.6-8-4.6c-1.6-1.1-4.2-2.6-5.9-3.4-1.6-.8-3.2-1.7-3.5-2-.3-.3-3.5-2.1-7.2-4-3.8-1.9-6.8-3.8-6.8-4.2 0-.5-.8-.8-1.7-.8-4.7-.1-4.6-1.4 1.3-12.6 3.1-6 6-11.4 6.4-11.9 1-1.4 6.9-12.1 9.3-17 1.1-2.2 2.3-4.2 2.6-4.5.4-.3 1.7-2.5 3-5 5.6-11.2 8.8-17.1 9.9-18.2.7-.7 1.2-1.8 1.2-2.6 0-1.5 3.3-6.2 3.9-5.6.2.2-.4 3-1.3 6.1zM1448 196.5c-56.2 8.8-93.6 54.8-90.7 111.5 2.7 52 39.2 91.6 91.7 99.6 44.4 6.6 88-11.5 110.5-45.9 6.6-10.3 10.8-19.8 14.3-32.6 2.3-8.6 2.5-11.5 2.5-27.1 0-15.6-.2-18.5-2.5-27.1-7.1-26.5-21.5-47-43.1-61.3-23.2-15.4-53.5-21.7-82.7-17.1zm37.1 20.1c28.9 5.5 52.4 24.4 63 50.9 4.7 11.7 6.2 20.4 6.2 34.5 0 14.1-1.5 22.8-6.2 34.5-10.7 26.7-34.1 45.5-63.6 51-11.8 2.3-30.6 1.6-41.9-1.4-29.7-7.9-52.6-30.8-60.8-60.6-3.1-11.5-3.1-35.5 0-46.9 8.8-31.9 32.9-54.8 65.2-61.6 10.7-2.3 27.2-2.5 38.1-.4zM969 206.5v9.5h43v172h-43v19h108v-19h-43V216h43v-19H969v9.5zM1202 302v105h140v-19h-118V197h-22v105zM1705 302v105h140v-19h-118V197h-22v105zM1876 261.8c0 38.1.4 68.1 1 72.9 1.6 12.6 4.6 22.9 9.7 33.3 3.9 7.8 6.2 11 13.3 18.1 7.2 7.3 10.1 9.4 18 13.2 12 5.9 23.3 8.6 38.5 9.4 20 1 35-1.8 50.5-9.4 7.9-3.8 10.9-6 18.1-13.2 9.7-9.8 15.2-19.2 19.2-33.1 4.3-14.7 4.7-22.7 4.7-91.3V197h-22v67.2c0 76.8-.2 78.7-8 94.4-9.6 19.6-26 29.1-52.1 30.1-40.9 1.7-63.2-17.4-67.9-58.2-.6-5.2-1-35.1-1-71.3V197h-22v64.8zM2115 302v105h53c31 0 57.1-.4 62.7-1.1 27.3-3 47.1-14.2 55.1-30.9 8.9-18.9 6.2-43.2-6.6-58.7-5.7-7.1-15.7-12.9-29.1-16.9-.8-.3 1.2-2 4.9-4.2 15.3-9.1 24-24.7 24-43.4 0-20.8-8.8-35.7-26.6-45-16.9-8.8-25.3-9.8-87.1-9.8H2115v105zm101.3-85.9c15 1.8 25.2 6.3 32.1 14 6.4 7 8.1 11.9 8.1 23.4 0 11.5-1.7 16.4-8.1 23.4-6.9 7.7-17.1 12.2-32.1 14-4.8.6-24.7 1.1-44 1.1H2137v-77h35.3c19.3 0 39.2.5 44 1.1zm21.9 96.7c18 4.9 26.6 13.2 29.8 28.6 3.6 17.3-4.2 33.6-19.4 40.7-12.3 5.8-15.8 6.1-65.8 6.6l-45.8.5v-79.4l46.8.4c43.8.4 47.2.6 54.4 2.6zM2342 302v105h22V197h-22v105zM2432 302v105h22l.2-85 .3-85 67.5 85 67.5 85h18.5V197h-22l-.2 84.8-.3 84.9-67.5-84.8-67.5-84.9H2432v105zM185.4 232c-13.7 3.6-24 9.6-34.9 20.6-13.1 13.2-19.4 28.1-20.2 47.4-.4 9.6-.2 12.9 1.7 20 1.2 4.7 2.9 10.1 3.8 12 3 6.6 9.9 16.5 15.3 21.9 6.4 6.3 17 14.1 19.3 14.1.9 0 1.6.4 1.6.9s1 1.1 2.3 1.4c1.2.3 6 1.7 10.7 3.1 7 2.1 10.5 2.6 19.9 2.6 10.6 0 13.3-.4 23.6-3.3 10-2.8 27.1-13.7 32.9-20.9 1.4-1.8 3.3-4 4.1-4.9 2.6-2.8 9.6-16.3 11.8-22.9 1.9-5.5 2.2-8.7 2.2-21 0-14.7-.3-16.3-4.8-28-2.3-6.2-8.3-15.6-13.6-21.4-7.9-8.5-22.3-17.5-33.1-20.6-2.5-.7-5.8-1.6-7.4-2.1-5.2-1.6-27.4-.9-35.2 1.1zm41.1 11.2c6.2 2.1 14.9 6.5 18.7 9.6 16.5 13.2 25.2 30.6 25 50.2-.2 31-23.5 57.6-54.9 62.5-9.4 1.5-2.7-3.3 9.9-7.1 4.6-1.4 9.4-3.1 10.8-3.8 2.6-1.4 12.9-15.2 13-17.4 0-.7.4-2 .9-3 2.7-5.3 3.2-7.2 2.9-10.7-.4-4.7-1.7-5.3-12.4-5.4-7-.1-7.1-.1-14.5-5.8-6.4-5-7.9-5.7-11.5-5.6-3.8.1-10.2 3.2-17.6 8.4-1.4 1.1-2.8 1.9-3 1.9-.1 0-.4-4.3-.5-9.5-.1-5.2.1-9.5.4-9.5.3 0 1.7.9 3.2 1.9 3.3 2.4 7.2 3.4 8.7 2.4 1.6-1.2 3.4-4.9 3.4-7.1 0-1.1 3.1-5.3 6.8-9.3l6.9-7.3 5.6 1.3c9.1 2 12.2-1.4 9.7-10.5-1.3-4.5-6.3-9.8-15.1-15.9-3.4-2.5-3.7-2.5-8.5-1-2.7.8-5 1.5-5 1.5-.1 0-.5-3-.9-6.6-.5-4.5-.3-6.9.4-7.4 1.5-.8 10 .7 17.6 3.2zm-34.2 1c-1.5 1.6-6.3 4.8-10.7 7.1-6.5 3.5-9 5.6-14.5 12.2-3.6 4.4-8.5 10.8-10.9 14.3-4 5.8-4.3 6.7-3.9 11.3.5 5.3 2.8 9.6 5.5 10.6 7.8 2.8 18.7 8.9 23.6 13.1 3.5 3.1 6.9 5.2 8.3 5.2 1.9 0 2.3.5 2.3 3.3 0 3 2.2 8.1 7.7 17.7l2 3.5-2.8 4.1c-1.7 2.6-3.3 6.8-4.1 10.9-.7 3.7-1.9 7-2.6 7.3-2.9 1.1-15.7-4.2-24.3-9.9-37.1-24.9-37.6-77.7-1.1-103.2 4.5-3.1 10.9-6.5 15.2-8 12.6-4.3 14.8-4.2 10.3.5zM199 257c0 4.6 2.7 8 6.3 8 1.2 0 4.4-.7 7.1-1.5 4.9-1.5 5-1.5 8.8 1.1 2.1 1.5 3.8 3 3.8 3.4 0 .4-1.5 1.1-3.4 1.4-4.2.8-9.4 4.9-16.3 12.8l-5.3 6.2h-7.4c-8.9.1-10.6 1.2-10.6 7.1v4.2l-5.2-2.6c-2.9-1.4-7.2-3.4-9.5-4.4-6.3-2.7-6.2-4.4.2-13.3 8.7-12.1 13.5-16.9 20.8-20.4 3.6-1.7 7.1-3.8 7.8-4.6 2-2.4 2.9-1.6 2.9 2.6zm23.6 65.5c6.4 5.1 7.3 5.5 12.1 5.5 2.8 0 5.4.4 5.8 1 .8 1.3-3.7 9.8-7.7 14.2-2.5 2.9-4.7 4.1-9.3 5.3-3.3.8-8.7 2.8-12 4.4-3.3 1.6-6.2 2.8-6.4 2.6-.4-.5 4-6.9 5.1-7.3.4-.2 1-1.8 1.3-3.6.5-2.6-.2-4.9-3.9-11.8-2.5-4.7-4.6-8.8-4.6-9.1 0-1 9.4-6.7 11-6.7 1 0 4.8 2.5 8.6 5.5zM25.8 259.4c-6.5 2.8-7.4 3.4-13.7 9.6-11.3 11.1-15 29.3-9 44 6.1 14.8 16.4 23.5 31.2 26 11.5 2 22.7-1.5 32.1-10.1C78 318.3 82.3 302.7 78.2 286c-2.5-10.2-11.7-21.1-21.5-25.6-5.1-2.3-7.8-2.9-15.7-3.1-8.3-.3-10.2 0-15.2 2.1zm23.3 8.7c2 .5 5.4 2.2 7.7 3.8C61 275 67 282.8 67 285.2c0 .8.4 1.8 1 2.4 1.9 1.9 2.3 11.8.6 18.2-3.7 14.6-14.2 23.3-28.1 23.4-15.2.1-26.4-10-29.5-26.4-1.9-9.8 1.5-20.1 9.1-27.6 8.1-8.2 16.6-10.3 29-7.1z"/></g></svg>