<svg version="1.0" xmlns="http://www.w3.org/2000/svg" viewBox="0 0 2608 785" preserveAspectRatio="xMidYMid meet">

<g transform="translate(0.000000,785.000000) scale(0.100000,-0.100000)" fill="#FFFFFF" stroke="none">
<path d="M6265 7844 c-11 -3 -29 -9 -40 -13 -54 -23 -102 -40 -125 -46 -14 -4
-72 -21 -130 -40 -58 -18 -132 -41 -165 -50 -33 -10 -85 -26 -116 -36 -30 -11
-64 -19 -75 -19 -11 0 -24 -4 -30 -8 -5 -5 -29 -14 -54 -22 -25 -7 -84 -26
-131 -41 -48 -16 -93 -29 -102 -29 -19 0 -87 -59 -87 -76 0 -7 -6 -17 -13 -21
-7 -4 -28 -28 -47 -53 -19 -25 -41 -51 -48 -59 -33 -35 -128 -156 -142 -181
-8 -15 -26 -42 -40 -59 -87 -112 -134 -171 -162 -204 -18 -22 -37 -47 -43 -57
-5 -10 -24 -33 -40 -52 -17 -18 -46 -54 -64 -80 -19 -27 -38 -48 -43 -48 -4 0
-8 -6 -8 -12 0 -7 -15 -30 -33 -50 -17 -21 -61 -74 -97 -119 -36 -45 -69 -87
-75 -93 -5 -6 -22 -27 -37 -48 -15 -20 -34 -42 -41 -50 -7 -7 -18 -20 -23 -29
-5 -9 -26 -36 -46 -60 -20 -24 -74 -91 -119 -149 -46 -58 -87 -106 -91 -108
-4 -2 -8 -10 -8 -18 0 -8 -3 -14 -8 -14 -4 0 -25 -23 -47 -51 -22 -29 -56 -71
-75 -94 -19 -23 -53 -64 -75 -91 -22 -26 -51 -60 -64 -73 -23 -24 -147 -198
-204 -287 -16 -24 -33 -44 -38 -44 -5 0 -9 -4 -9 -10 0 -9 -43 -71 -86 -123
-8 -9 -14 -20 -14 -23 0 -4 -23 -37 -51 -75 -55 -75 -72 -119 -60 -152 5 -12
32 -60 60 -106 28 -46 51 -90 51 -98 0 -7 3 -13 8 -13 4 0 19 -21 32 -47 14
-27 42 -75 64 -108 21 -33 42 -69 47 -80 5 -11 21 -41 36 -66 15 -26 46 -77
67 -115 22 -38 45 -76 51 -84 7 -8 25 -40 41 -70 16 -30 40 -71 53 -90 12 -19
27 -44 32 -55 38 -79 75 -117 153 -155 36 -18 76 -42 89 -54 13 -12 62 -41
110 -66 48 -24 87 -48 87 -52 0 -5 9 -8 19 -8 11 0 21 -3 23 -7 2 -5 46 -30
98 -57 52 -27 109 -58 125 -68 17 -10 37 -21 45 -25 8 -4 38 -20 65 -36 48
-29 130 -74 225 -124 25 -13 72 -39 105 -57 33 -18 89 -49 125 -68 164 -86
260 -144 260 -155 0 -7 -4 -13 -9 -13 -5 0 -17 -8 -27 -17 -10 -10 -27 -25
-39 -33 -41 -28 -178 -132 -245 -186 -25 -20 -81 -64 -125 -98 -44 -33 -84
-64 -90 -68 -12 -9 -141 -117 -249 -208 -43 -36 -83 -67 -89 -69 -6 -2 -17
-10 -25 -17 -7 -7 -39 -34 -72 -60 -33 -26 -60 -51 -60 -56 0 -4 -12 -14 -26
-20 -14 -7 -49 -33 -77 -60 -29 -26 -57 -48 -63 -48 -6 0 -19 -9 -29 -20 -10
-11 -22 -20 -27 -20 -5 0 -23 -13 -41 -30 -18 -16 -38 -30 -44 -30 -7 0 -13
-4 -13 -8 0 -5 -11 -15 -25 -22 -14 -8 -44 -31 -67 -52 -23 -21 -45 -38 -50
-38 -4 0 -16 -7 -26 -16 -16 -14 -161 -122 -206 -154 -11 -8 -50 -38 -86 -66
-36 -28 -75 -56 -87 -62 -12 -7 -27 -18 -35 -24 -14 -14 -132 -103 -167 -128
-55 -38 -303 -227 -335 -255 -6 -6 -28 -23 -48 -39 -45 -34 -49 -66 -14 -99
13 -12 72 -47 130 -77 58 -30 106 -58 106 -61 0 -4 15 -10 34 -13 19 -4 39
-13 46 -21 7 -8 17 -15 23 -15 6 0 74 -31 151 -69 164 -80 184 -89 291 -131
44 -18 99 -40 121 -51 23 -10 64 -26 90 -35 27 -9 67 -24 89 -34 76 -34 385
-137 525 -175 36 -9 92 -26 125 -36 171 -52 472 -118 755 -165 756 -126 1644
-122 2405 11 284 50 760 161 915 214 14 5 72 23 130 41 58 17 113 35 122 41
10 5 26 9 35 9 10 0 27 7 37 15 11 8 29 15 41 15 12 0 25 4 30 9 6 5 28 14 50
21 22 7 94 34 160 60 109 43 161 65 252 106 17 8 38 14 47 14 9 0 16 5 16 10
0 6 7 10 15 10 18 0 448 217 492 248 17 12 34 22 39 22 4 0 30 15 58 33 28 18
65 39 81 47 67 33 74 83 18 126 -21 15 -39 32 -41 36 -2 4 -9 8 -15 8 -7 0
-44 24 -82 53 -39 29 -84 62 -101 72 -97 62 -164 110 -164 117 0 4 -6 8 -13 8
-7 0 -22 8 -33 18 -18 17 -155 115 -192 137 -10 6 -19 13 -22 16 -3 3 -18 14
-35 23 -16 9 -46 29 -66 44 -20 15 -67 49 -105 77 -38 27 -78 58 -88 67 -11
10 -25 18 -32 18 -7 0 -14 4 -16 8 -3 8 -133 100 -190 135 -16 9 -38 26 -49
36 -11 10 -35 27 -54 37 -19 10 -35 21 -35 25 0 3 -40 32 -90 65 -49 32 -90
62 -90 66 0 4 -6 8 -13 8 -8 0 -22 9 -32 20 -10 11 -22 20 -26 20 -5 0 -48 30
-96 66 -48 37 -98 71 -110 77 -13 6 -23 13 -23 17 0 4 -11 12 -25 18 -14 7
-31 17 -38 22 -14 12 -187 139 -235 172 -136 95 -149 108 -157 154 -6 38 -9
46 -35 109 -19 46 -50 158 -50 181 0 20 17 35 106 99 23 17 88 66 145 110 57
43 109 83 114 87 6 4 28 22 50 40 22 18 44 36 50 40 5 4 24 19 41 33 18 14 36
25 41 25 5 0 15 9 23 20 8 11 19 20 24 20 5 0 16 7 25 15 39 38 77 65 92 65 8
0 30 16 49 35 19 19 38 35 43 35 5 0 27 15 48 33 71 60 107 87 113 87 13 0 56
49 56 64 0 9 9 31 20 51 11 20 20 42 20 49 0 7 18 48 40 91 22 43 40 86 40 96
0 10 5 21 10 24 6 3 10 14 10 24 0 10 9 30 20 44 11 14 20 32 20 40 0 8 9 26
20 40 11 14 20 32 20 40 0 8 14 41 30 72 17 31 30 63 30 71 0 8 4 22 9 32 5 9
14 28 20 42 6 14 20 39 30 55 11 17 20 40 20 53 1 13 10 41 20 63 23 48 16 71
-37 129 -18 19 -40 47 -50 63 -9 15 -20 27 -24 27 -4 0 -8 6 -8 13 0 6 -18 29
-40 50 -22 20 -40 44 -40 52 0 8 -5 15 -10 15 -14 0 -70 51 -70 63 0 6 -19 31
-42 57 -57 62 -110 128 -124 154 -9 15 -9 88 -3 275 11 291 17 270 -85 322
-33 17 -68 37 -76 43 -8 7 -45 27 -82 45 -38 18 -68 36 -68 42 0 5 -9 9 -20 9
-11 0 -20 5 -20 10 0 6 -9 10 -20 10 -11 0 -20 5 -20 10 0 6 -7 10 -15 10 -13
0 -14 23 -8 174 7 189 7 188 -49 213 -16 7 -28 17 -28 23 0 6 -4 9 -9 6 -5 -3
-14 1 -21 9 -7 8 -16 15 -21 15 -5 0 -40 20 -78 45 -38 25 -72 45 -76 45 -3 0
-33 18 -66 40 -33 22 -63 40 -66 40 -3 0 -22 14 -43 30 -21 17 -42 30 -46 30
-19 1 -74 60 -139 150 -37 52 -71 97 -75 100 -4 3 -22 28 -41 55 -39 58 -76
108 -133 183 -23 29 -50 66 -61 81 -88 124 -150 207 -159 213 -6 4 -8 8 -4 8
12 0 -24 40 -47 53 -20 11 -64 19 -210 37 -184 23 -347 45 -450 61 -33 6 -94
14 -135 19 -41 6 -86 12 -100 14 -61 11 -106 14 -125 10z m232 -137 c45 -7 85
-15 88 -19 4 -4 -2 -28 -14 -53 -11 -24 -21 -48 -21 -52 0 -7 -34 -83 -51
-115 -5 -10 -9 -25 -9 -33 0 -21 -15 -19 -43 8 -52 47 -83 73 -115 96 -38 27
-38 36 -6 128 18 50 21 53 54 52 19 0 72 -5 117 -12z m-282 -7 c3 -5 -5 -33
-18 -62 -13 -29 -30 -69 -37 -88 -6 -19 -16 -44 -20 -55 -5 -11 -11 -28 -14
-38 -6 -18 -7 -18 -37 0 -17 10 -33 24 -36 31 -3 6 -11 12 -17 12 -7 0 -21 8
-32 18 -10 9 -31 23 -46 31 -16 8 -28 18 -28 23 0 4 -6 8 -14 8 -7 0 -19 6
-26 14 -9 12 -5 16 24 22 20 3 39 10 42 15 3 5 15 9 27 10 12 0 65 15 117 34
112 39 107 38 115 25z m655 -41 c36 -5 88 -13 115 -17 l50 -8 -32 -17 c-18 -9
-39 -17 -48 -17 -8 0 -15 -4 -15 -9 0 -5 -15 -14 -32 -21 -18 -7 -70 -30 -116
-51 -46 -21 -91 -39 -101 -39 -9 0 -26 -7 -37 -15 -38 -29 -63 -5 -29 29 8 8
15 19 15 25 0 25 45 111 61 116 9 3 19 15 22 27 5 18 11 20 44 14 21 -4 67
-12 103 -17z m-1189 -173 c-7 -22 -17 -55 -22 -72 -5 -17 -9 -37 -9 -46 0 -9
-6 -28 -14 -42 l-14 -27 -28 26 c-16 15 -41 33 -56 41 -16 8 -28 19 -28 24 0
6 -6 10 -12 10 -7 1 -28 14 -47 30 -24 21 -30 31 -20 34 8 2 55 16 104 31 50
14 104 32 120 39 37 16 41 7 26 -48z m183 -4 c28 -21 72 -51 98 -67 26 -17 47
-35 48 -41 0 -6 -21 -17 -47 -24 -27 -6 -57 -15 -68 -20 -11 -4 -42 -15 -70
-23 -27 -8 -58 -18 -67 -22 -15 -6 -16 -2 -11 32 3 21 10 42 14 48 5 5 9 20 9
34 0 13 5 41 11 60 7 20 13 42 15 49 5 18 13 15 68 -26z m1139 -47 c-47 -65
-89 -124 -128 -181 -19 -29 -95 -129 -144 -191 -14 -18 -31 -33 -37 -33 -11 0
-54 79 -54 99 0 5 -13 38 -30 73 -43 91 -41 102 25 133 31 14 60 25 65 25 5 0
33 11 62 24 29 13 87 38 128 56 41 18 93 40 115 50 22 10 42 16 43 15 2 -2
-18 -33 -45 -70z m348 -3 c8 -15 19 -32 24 -38 6 -6 21 -26 35 -44 14 -19 35
-46 48 -61 12 -15 22 -30 22 -34 0 -3 6 -12 13 -20 19 -20 40 -47 67 -85 13
-19 27 -37 30 -40 17 -15 130 -172 130 -180 0 -5 -12 -8 -27 -5 -16 2 -124 10
-240 16 -117 7 -218 16 -224 20 -9 5 -9 23 0 70 10 60 61 443 61 463 0 15 45
-32 61 -62z m-1021 -34 l79 -62 -32 -28 c-18 -15 -35 -27 -39 -28 -4 0 -54
-36 -112 -80 -58 -44 -106 -74 -106 -68 0 7 21 63 46 123 25 61 52 131 60 158
9 26 17 47 20 47 2 0 40 -28 84 -62z m855 25 c-4 -21 -10 -49 -15 -63 -5 -14
-11 -54 -15 -90 -6 -63 -11 -106 -35 -275 -6 -44 -14 -129 -16 -190 -3 -60 -9
-114 -13 -118 -5 -5 -34 12 -65 37 -30 25 -59 46 -64 46 -5 0 -19 11 -32 25
-13 14 -27 25 -31 25 -5 0 -27 18 -51 40 -24 22 -49 40 -55 40 -18 0 -16 26 4
58 16 26 142 191 153 202 5 5 14 19 48 72 9 16 23 28 30 28 6 0 12 6 12 13 0
10 39 67 111 160 29 37 41 34 34 -10z m-1892 -98 c9 -20 17 -42 17 -51 0 -8 9
-34 20 -56 11 -23 20 -47 20 -53 0 -7 7 -26 16 -44 9 -18 14 -34 12 -37 -5 -4
-91 15 -173 38 -35 10 -55 14 -87 17 -5 1 -8 6 -8 12 0 11 151 208 161 208 3
1 13 -15 22 -34z m167 -30 c25 -19 56 -43 70 -54 58 -45 118 -88 167 -119 28
-18 53 -37 55 -41 2 -4 32 -27 68 -52 142 -97 149 -107 113 -159 -10 -14 -58
-106 -108 -204 -86 -172 -115 -213 -115 -167 0 12 -4 29 -9 39 -5 9 -14 31
-21 47 -7 17 -16 38 -21 47 -5 10 -9 25 -9 33 0 15 -3 23 -33 80 -8 17 -18 47
-22 68 -4 20 -11 40 -16 43 -5 3 -9 13 -9 23 0 9 -9 36 -20 59 -11 22 -20 48
-20 56 0 8 -4 18 -10 21 -5 3 -10 14 -10 24 0 9 -9 36 -20 59 -11 22 -20 48
-20 56 0 8 -4 17 -9 20 -4 3 -14 27 -21 53 -7 27 -16 53 -20 58 -12 18 -20 45
-12 45 4 0 27 -16 52 -35z m571 -96 c-10 -24 -27 -65 -36 -91 -10 -27 -22 -48
-27 -48 -6 0 -35 19 -66 43 -32 23 -70 51 -87 62 l-30 19 130 42 c93 29 131
37 133 29 2 -7 -6 -33 -17 -56z m488 -54 c18 -49 42 -109 53 -133 11 -24 19
-45 17 -47 -8 -8 -458 10 -466 19 -4 5 -3 11 3 13 6 2 87 60 179 129 93 68
171 121 175 117 3 -5 21 -48 39 -98z m-1311 -132 c62 -15 111 -31 110 -35 -4
-11 -268 -167 -271 -159 -1 3 -1 57 1 119 3 112 4 114 25 108 12 -3 73 -18
135 -33z m-263 -152 c-2 -9 -4 -38 -5 -66 l-1 -50 -135 -105 c-75 -58 -149
-117 -166 -132 -18 -15 -35 -25 -40 -22 -9 6 41 81 89 134 18 19 33 38 33 42
0 4 6 13 13 20 28 29 87 106 87 113 0 4 10 17 23 29 33 32 87 100 88 111 1 6
5 -5 9 -24 4 -18 6 -41 5 -50z m522 -8 c12 -32 33 -89 47 -128 14 -38 26 -72
27 -75 0 -3 7 -20 15 -39 8 -18 14 -37 14 -41 0 -4 11 -33 25 -64 27 -61 19
-72 -26 -38 -13 10 -58 35 -99 56 -41 21 -82 45 -91 52 -8 8 -20 14 -26 14 -6
0 -59 27 -118 60 -59 33 -111 60 -116 60 -21 0 -6 23 21 33 17 6 30 15 30 19
0 4 5 8 11 8 6 0 31 14 56 30 24 17 51 30 59 30 7 0 14 5 14 10 0 6 12 16 28
23 15 6 29 14 32 17 12 12 46 29 61 29 9 1 23 -20 36 -56z m928 12 c148 -6
195 -15 170 -33 -6 -4 -16 -19 -24 -34 -8 -16 -18 -28 -23 -28 -4 0 -8 -4 -8
-10 0 -5 -16 -34 -35 -64 -19 -30 -35 -57 -35 -60 0 -3 -28 -48 -62 -101 -69
-108 -72 -109 -106 -15 -11 30 -32 82 -47 115 -37 82 -50 113 -71 165 -9 25
-21 50 -26 57 -10 12 34 21 82 16 14 -1 97 -5 185 -8z m990 -30 c126 -10 273
-19 305 -20 19 0 36 -4 38 -8 2 -5 -16 -30 -40 -56 -24 -26 -61 -69 -82 -97
-22 -27 -50 -59 -63 -70 -13 -12 -23 -25 -23 -30 0 -5 -18 -28 -39 -52 -22
-24 -41 -47 -43 -51 -2 -4 -22 -30 -45 -57 -24 -27 -82 -96 -129 -154 -48 -58
-91 -107 -97 -109 -5 -2 -7 18 -3 50 3 30 9 113 12 184 3 72 10 135 14 140 14
18 23 89 25 195 2 58 3 116 4 128 1 23 3 24 59 18 31 -4 80 -8 107 -11z m-617
-58 c24 -18 52 -39 62 -48 9 -9 22 -18 27 -20 19 -8 143 -104 143 -111 0 -5
-9 -8 -19 -8 -11 0 -23 -4 -26 -10 -3 -5 -17 -10 -30 -10 -13 0 -27 -4 -30
-10 -3 -5 -17 -10 -30 -10 -13 0 -27 -4 -30 -10 -3 -5 -15 -10 -26 -10 -10 0
-27 -4 -37 -9 -28 -14 -87 -31 -108 -31 -11 0 -37 -9 -59 -20 -22 -11 -46 -20
-55 -20 -8 0 -35 -7 -59 -16 -24 -8 -46 -12 -49 -9 -3 3 4 19 16 35 12 16 22
32 22 36 0 3 13 25 28 48 15 22 31 48 35 56 4 8 15 27 25 42 31 48 87 143 94
162 11 24 49 15 106 -27z m-722 7 c4 -14 20 -53 35 -85 16 -33 29 -65 29 -72
0 -7 4 -17 8 -22 5 -6 16 -28 24 -50 9 -22 28 -67 43 -100 14 -33 31 -71 36
-85 38 -92 45 -97 189 -163 41 -19 113 -53 160 -75 47 -22 96 -43 110 -47 28
-7 48 -16 175 -75 50 -22 111 -51 137 -62 40 -19 47 -27 52 -57 9 -52 26 -176
36 -251 5 -36 13 -96 19 -135 27 -189 31 -246 21 -322 -21 -169 -29 -231 -40
-293 -7 -36 -14 -91 -17 -123 -4 -51 -2 -59 19 -77 12 -10 35 -24 51 -31 26
-11 36 -33 19 -41 -4 -1 -34 -34 -66 -73 -32 -38 -73 -84 -90 -100 -53 -52
-116 -132 -116 -148 0 -8 -8 -36 -19 -63 -17 -46 -92 -280 -106 -334 -4 -14
-13 -38 -20 -55 -7 -16 -23 -65 -35 -107 -16 -54 -29 -80 -42 -84 -10 -3 -16
-9 -13 -13 2 -5 -9 -46 -25 -92 -16 -46 -54 -165 -85 -264 -32 -99 -63 -196
-71 -215 -7 -19 -17 -51 -22 -70 l-8 -35 -55 3 c-30 1 -99 7 -154 12 -55 5
-161 14 -235 20 -129 10 -284 24 -415 36 -65 6 -63 4 -98 94 -5 14 -19 45 -30
70 -11 25 -23 54 -27 65 -11 29 -34 82 -63 145 -13 30 -34 80 -47 110 -12 30
-28 69 -35 85 -7 17 -25 59 -40 95 -15 36 -31 74 -35 85 -4 11 -17 41 -29 67
-12 26 -21 50 -21 53 0 3 -9 27 -21 53 -12 26 -25 56 -29 67 -4 11 -15 36 -23
55 -8 19 -31 76 -52 125 -20 50 -43 104 -50 120 -21 50 -67 158 -77 185 -6 14
-19 41 -29 61 -11 20 -19 44 -19 53 0 9 -4 24 -9 34 -6 9 -20 40 -32 67 -12
28 -26 60 -32 72 -12 26 -10 38 43 238 22 88 45 180 51 205 5 25 16 68 25 95
31 98 34 112 34 160 0 26 -13 86 -29 134 -16 47 -41 127 -55 176 -15 50 -32
100 -37 113 -5 13 -9 32 -9 42 0 11 -6 34 -14 52 -24 57 -56 182 -49 189 5 3
63 9 130 13 67 3 128 8 135 11 7 2 54 7 103 10 239 14 366 24 373 29 4 2 48 6
97 7 49 2 110 8 135 15 50 12 36 -8 175 264 32 63 65 123 73 133 8 9 12 17 9
17 -4 0 2 15 12 33 10 17 23 42 30 55 16 29 29 28 37 -4z m1972 -96 c57 -35
111 -70 120 -78 9 -8 38 -26 65 -39 67 -34 77 -49 38 -57 -17 -4 -34 -11 -37
-15 -3 -5 -16 -9 -29 -9 -13 0 -27 -4 -30 -10 -3 -5 -15 -10 -26 -10 -10 0
-27 -4 -37 -9 -9 -5 -28 -13 -42 -19 -14 -5 -41 -17 -60 -25 -79 -34 -75 -44
-78 156 -1 97 1 177 5 177 4 0 54 -28 111 -62z m-226 -260 c-6 -6 -16 -3 -25
6 -9 9 -19 16 -23 16 -4 0 -16 7 -26 17 -10 9 -28 21 -41 28 -34 17 -23 52 33
109 28 28 50 54 50 59 0 6 8 16 18 23 16 12 17 4 20 -118 1 -72 -1 -135 -6
-140z m-2705 180 c43 -23 105 -56 138 -74 33 -17 93 -49 133 -70 39 -21 72
-41 72 -45 0 -4 13 -10 29 -14 16 -3 34 -12 40 -19 11 -13 -38 -19 -389 -47
-69 -5 -175 -14 -236 -19 -178 -16 -186 -15 -207 22 l-18 31 33 28 c18 16 39
28 46 29 6 0 12 6 12 14 0 8 8 17 18 20 9 4 37 24 61 46 25 22 47 40 51 40 4
0 22 15 41 33 33 32 78 65 91 66 3 1 42 -18 85 -41z m1993 -137 c0 -16 -4 -63
-9 -103 -8 -56 -19 -227 -21 -310 0 -14 -35 -8 -66 11 -17 10 -45 22 -62 26
-18 3 -35 12 -39 18 -5 7 -28 20 -53 29 -192 72 -375 157 -363 168 13 13 237
80 265 80 15 0 30 5 33 10 3 6 17 10 30 10 13 0 26 4 29 9 3 4 27 14 53 21 27
6 57 16 68 21 39 18 100 38 118 38 12 1 17 -7 17 -28z m550 -72 c27 -17 50
-35 50 -40 0 -5 -17 -17 -37 -27 -74 -38 -129 -68 -170 -95 -24 -15 -45 -27
-48 -27 -3 0 -19 -10 -35 -22 -16 -12 -32 -19 -35 -16 -6 5 32 53 112 143 20
22 47 57 61 78 13 20 31 37 38 37 8 0 36 -14 64 -31z m704 -41 c-1 -40 -2 -95
-3 -121 -1 -51 -20 -70 -50 -49 -9 6 -65 40 -124 75 l-108 64 33 13 c18 6 42
16 53 21 31 15 179 67 191 68 7 1 10 -25 8 -71z m-3789 -5 c9 -21 26 -58 38
-83 31 -68 72 -188 83 -245 2 -11 13 -53 25 -92 11 -40 29 -104 39 -142 10
-39 24 -79 29 -90 13 -23 14 -41 4 -41 -5 0 -33 23 -63 51 -82 76 -119 109
-185 164 -33 28 -76 66 -96 85 -32 31 -86 77 -136 116 -16 12 -16 15 -3 27 8
6 37 41 65 77 27 36 58 74 67 85 30 36 53 63 77 94 13 17 27 31 31 31 4 0 15
-17 25 -37z m3266 -90 c18 -45 25 -63 59 -153 18 -47 41 -102 52 -123 25 -47
21 -49 -108 -45 l-99 3 -24 49 c-13 27 -34 76 -46 110 -12 34 -25 69 -29 78
-6 12 2 21 31 34 21 10 58 31 82 46 56 35 69 35 82 1z m171 -24 c29 -16 61
-33 71 -36 9 -3 17 -9 17 -14 0 -5 9 -9 19 -9 11 0 21 -4 23 -8 2 -4 25 -20
51 -36 47 -27 48 -28 31 -47 -9 -10 -23 -19 -30 -19 -7 0 -14 -4 -16 -8 -1 -4
-23 -23 -48 -42 -25 -19 -48 -39 -51 -44 -12 -16 -27 4 -45 62 -9 31 -21 61
-26 67 -4 5 -8 18 -8 30 0 12 -4 25 -9 31 -9 10 -42 104 -36 104 2 0 28 -14
57 -31z m-458 -141 c9 -17 16 -39 16 -48 0 -10 6 -23 14 -29 8 -6 16 -21 19
-31 5 -18 0 -20 -46 -19 -29 0 -97 6 -151 12 -110 13 -110 14 -16 63 30 16 73
41 95 56 22 15 43 28 47 28 3 0 14 -14 22 -32z m987 -70 c222 -118 212 -111
170 -129 -17 -8 -31 -17 -31 -21 0 -5 -4 -8 -10 -8 -5 0 -38 -20 -74 -44 -35
-24 -87 -56 -117 -72 -29 -16 -61 -37 -71 -46 -10 -10 -25 -18 -33 -18 -8 0
-15 -4 -15 -10 0 -5 -5 -10 -11 -10 -6 0 -34 -15 -62 -33 -128 -83 -149 -90
-107 -37 11 14 20 31 20 38 0 6 4 12 10 12 5 0 7 7 4 15 -4 8 1 17 10 21 9 3
16 15 16 25 0 10 5 19 10 19 6 0 10 9 10 19 0 11 3 21 8 23 4 2 32 53 62 113
65 131 100 195 106 195 3 0 50 -24 105 -52z m-309 -100 c-11 -18 -62 -115
-113 -215 -81 -157 -96 -180 -109 -169 -8 8 -53 26 -100 40 -47 15 -92 30
-100 33 -16 5 12 33 80 78 19 12 44 32 55 42 12 11 45 37 75 58 30 21 71 51
90 67 19 16 40 32 45 36 6 4 25 19 43 35 45 36 58 34 34 -5z m-4028 -40 c9
-93 13 -256 7 -266 -3 -4 -44 -16 -91 -26 -47 -10 -101 -21 -120 -26 -79 -20
-125 -29 -128 -25 -4 4 47 73 113 151 28 33 66 79 85 103 19 23 43 52 53 64
10 12 27 36 38 54 11 18 24 33 29 33 5 0 11 -28 14 -62z m162 2 c4 0 19 -11
33 -25 90 -85 234 -212 284 -251 42 -33 55 -63 22 -50 -8 3 -71 12 -142 21
-70 9 -151 20 -179 26 l-51 10 -11 107 c-7 59 -12 132 -12 162 l1 55 24 -27
c13 -16 27 -28 31 -28z m3039 -11 c72 -6 182 -18 245 -25 63 -8 137 -15 164
-16 54 -3 72 -22 34 -37 -13 -5 -61 -39 -108 -76 -47 -36 -110 -85 -140 -108
-30 -23 -72 -55 -92 -72 -20 -16 -65 -50 -98 -75 -34 -25 -80 -60 -102 -79
-44 -39 -58 -33 -58 25 0 28 -19 174 -50 376 -5 37 -10 74 -10 82 0 20 35 20
215 5z m1384 -131 c-1 -35 -4 -102 -8 -151 l-6 -87 -47 37 c-26 21 -66 52 -88
68 -22 17 -49 38 -61 47 l-21 17 34 20 c18 11 38 24 44 29 5 5 32 22 60 37 27
15 53 31 59 36 25 24 35 8 34 -53z m-173 -249 c57 -44 104 -83 104 -87 0 -9
-31 -29 -108 -69 -34 -18 -83 -44 -108 -58 -47 -26 -69 -32 -59 -14 4 5 11 34
15 62 5 29 11 63 14 77 2 14 10 58 17 98 7 39 14 72 16 72 3 0 52 -36 109 -81z
m-231 19 c-4 -29 -9 -60 -12 -68 -3 -8 -8 -33 -10 -55 -2 -22 -8 -52 -14 -67
-6 -15 -8 -31 -5 -37 11 -17 -14 -24 -32 -9 -9 8 -42 30 -72 48 -30 18 -57 35
-60 39 -3 4 -18 12 -33 19 -28 12 -29 32 -1 32 8 0 14 3 14 8 0 4 21 19 47 32
26 14 56 33 67 43 11 9 25 17 32 17 7 0 14 3 16 8 3 6 57 41 66 42 1 0 0 -24
-3 -52z m-590 -8 c3 -5 17 -10 30 -10 13 0 27 -4 30 -10 3 -5 19 -10 36 -10
22 0 34 -8 48 -31 24 -39 21 -47 -68 -214 -41 -76 -51 -86 -51 -53 0 14 -5 38
-10 54 -6 16 -21 79 -34 139 -12 61 -26 118 -31 128 -6 14 -2 17 18 17 14 0
29 -4 32 -10z m-3295 -21 c57 -6 109 -13 113 -16 5 -3 40 -9 79 -13 38 -4 72
-11 75 -14 4 -3 -9 -19 -28 -34 -19 -15 -63 -55 -99 -88 -36 -34 -80 -75 -99
-90 -19 -16 -64 -57 -100 -91 -36 -35 -69 -63 -72 -63 -10 0 -19 85 -20 184 0
50 -4 123 -8 161 -5 39 -6 73 -4 77 2 4 16 5 31 3 15 -2 74 -9 132 -16z m-268
-19 c1 -16 2 -42 4 -57 1 -16 5 -86 9 -158 3 -71 8 -140 11 -152 6 -32 -4 -28
-57 20 -26 23 -92 78 -148 121 -55 43 -101 84 -101 89 0 6 -3 7 -7 4 -3 -4
-26 11 -49 33 -24 22 -48 40 -54 40 -28 0 5 19 43 25 23 4 65 13 92 20 104 29
171 43 213 44 40 1 42 0 44 -29z m3418 6 c0 -12 13 -79 30 -147 16 -68 35
-146 41 -172 6 -27 9 -51 5 -54 -5 -5 -56 14 -98 37 -10 6 -26 10 -37 10 -11
0 -21 3 -23 8 -4 8 -66 42 -79 42 -4 0 -32 11 -61 24 -29 13 -63 27 -75 31
-31 9 -29 15 17 50 22 17 55 43 73 58 28 25 78 62 125 92 9 6 25 18 36 28 27
24 46 21 46 -7z m-3823 -187 c26 -22 70 -59 97 -82 27 -23 54 -47 60 -52 6 -6
27 -22 46 -35 19 -13 37 -27 40 -30 3 -3 25 -21 50 -41 25 -20 56 -46 68 -57
13 -12 29 -23 35 -26 7 -2 -15 -30 -48 -61 -143 -134 -253 -236 -300 -276 -27
-24 -69 -64 -93 -87 -24 -24 -45 -42 -47 -40 -6 6 25 809 31 819 8 13 8 13 61
-32z m983 11 c0 -11 -4 -28 -9 -38 -8 -15 -71 -272 -86 -349 -4 -18 -11 -35
-16 -38 -16 -10 -10 -74 11 -117 22 -46 25 -61 11 -56 -10 3 -102 80 -139 116
-12 12 -26 22 -29 22 -7 0 -88 64 -122 97 l-24 24 41 39 c23 22 43 40 46 40 2
0 25 19 49 43 25 23 77 72 117 107 40 36 86 79 104 97 37 37 46 40 46 13z
m3246 11 c5 -5 25 -17 44 -28 54 -28 180 -114 180 -121 0 -4 -12 -15 -28 -24
-51 -32 -66 -43 -86 -61 -12 -11 -41 -33 -65 -49 l-44 -31 -66 13 c-108 20
-110 24 -59 116 24 44 56 105 71 137 27 57 35 65 53 48z m695 -201 c-6 -69
-14 -176 -17 -237 -5 -82 -10 -113 -19 -113 -8 0 -15 3 -17 8 -1 4 -33 27 -70
52 -38 25 -68 48 -68 53 0 4 -6 7 -13 7 -7 0 -22 8 -33 18 -11 9 -46 35 -78
57 -32 22 -62 42 -66 45 -4 3 -10 21 -13 40 -7 34 -6 36 46 60 28 13 59 30 67
36 8 6 49 29 90 50 41 22 77 41 80 44 3 3 25 16 50 29 25 13 50 28 55 33 16
15 18 -45 6 -182z m-5112 -282 c-11 -282 -18 -338 -36 -291 -4 9 -38 71 -76
137 -39 67 -79 137 -90 156 -10 19 -23 39 -28 45 -14 15 -10 55 6 61 8 4 15
11 15 16 0 5 16 29 35 52 19 24 35 47 35 53 0 5 11 20 25 33 14 13 25 29 25
37 0 7 5 13 10 13 6 0 10 7 10 15 0 8 8 23 18 33 9 9 26 31 37 47 l20 30 3
-65 c2 -36 -2 -203 -9 -372z m5310 339 c11 -21 11 -30 0 -56 -8 -17 -17 -31
-21 -31 -5 0 -8 -9 -8 -19 0 -11 -4 -21 -8 -23 -4 -1 -18 -24 -30 -50 -26 -56
-47 -64 -38 -15 3 17 8 75 11 127 3 52 8 111 12 130 l5 35 32 -37 c17 -20 38
-48 45 -61z m-1585 -32 c42 -19 81 -35 86 -35 6 0 18 -4 28 -9 9 -6 37 -18 62
-29 25 -11 63 -27 85 -37 l40 -17 -35 -16 c-19 -8 -50 -21 -67 -29 -54 -22
-95 -40 -145 -62 -26 -11 -50 -21 -53 -21 -5 0 -75 -30 -122 -53 -31 -14 -35
-7 -24 44 6 24 11 61 11 81 0 20 4 39 9 42 4 3 10 39 13 79 5 74 11 97 28 97
5 0 43 -16 84 -35z m1712 -118 c8 -4 14 -14 14 -22 0 -8 14 -24 30 -37 17 -12
30 -30 30 -39 0 -10 18 -33 41 -53 40 -34 41 -36 28 -65 -8 -17 -17 -31 -21
-31 -5 0 -8 -8 -8 -19 0 -30 -29 -91 -47 -98 -8 -3 -24 -1 -34 5 -10 7 -41 12
-68 12 -28 0 -52 4 -55 9 -3 4 -31 11 -62 14 -77 8 -76 6 -34 75 11 18 48 85
82 150 61 117 80 142 87 119 2 -7 10 -16 17 -20z m-822 -29 c3 -7 7 -84 10
-170 l6 -157 -33 -31 c-17 -16 -38 -30 -44 -30 -7 0 -13 -4 -13 -9 0 -6 -18
-20 -40 -32 -22 -13 -40 -26 -40 -30 0 -9 -63 -49 -78 -49 -10 0 -18 73 -26
248 l-5 83 52 40 c29 22 70 56 93 75 42 37 94 72 107 73 4 1 9 -5 11 -11z
m-354 -63 c8 -2 21 -4 28 -4 20 -1 6 -18 -55 -62 -30 -23 -64 -50 -74 -60 -11
-11 -25 -19 -33 -19 -10 0 -6 16 16 58 53 99 58 105 81 97 12 -3 29 -8 37 -10z
m-260 -135 c-27 -51 -50 -97 -50 -102 0 -4 -4 -8 -8 -8 -4 0 -13 -13 -19 -30
-6 -16 -18 -30 -27 -30 -27 0 -266 89 -266 99 0 4 33 20 73 36 39 15 90 36
112 46 111 51 230 96 233 89 2 -4 -20 -49 -48 -100z m748 73 c15 -9 38 -27 52
-39 14 -12 37 -28 51 -35 15 -8 59 -37 98 -66 40 -28 78 -54 84 -56 7 -3 -55
-70 -138 -150 -82 -80 -151 -144 -152 -143 -2 1 -7 101 -13 222 -5 120 -12
234 -15 252 -7 37 -4 38 33 15z m-3994 -35 c174 -138 284 -227 306 -248 8 -8
28 -23 44 -33 35 -23 39 -19 -124 -128 -69 -46 -127 -86 -130 -89 -6 -7 -173
-120 -200 -135 -10 -6 -25 -17 -34 -24 -14 -12 -16 -10 -16 10 1 13 6 44 11
69 11 45 20 101 38 220 6 36 15 92 21 125 11 59 25 143 36 218 4 20 9 37 13
37 4 0 19 -10 35 -22z m-157 -45 c-11 -40 -27 -123 -37 -193 -6 -41 -14 -95
-20 -120 -5 -25 -13 -74 -19 -110 -29 -181 -35 -210 -50 -210 -14 0 -141 81
-169 107 -6 6 -21 15 -32 18 -11 3 -20 11 -20 16 0 5 -5 9 -10 9 -18 0 -109
65 -107 75 1 6 54 58 117 115 63 58 124 114 136 125 12 11 50 45 85 75 34 30
74 67 87 83 29 31 46 35 39 10z m3667 -234 l7 -107 -121 60 c-66 33 -120 61
-120 63 0 3 101 80 179 136 l36 25 6 -35 c4 -20 10 -84 13 -142z m1056 14 c36
-8 79 -17 95 -20 56 -9 56 -9 25 -69 -17 -31 -30 -62 -30 -68 0 -19 -28 -72
-45 -86 -8 -7 -15 -25 -15 -40 0 -31 -23 -82 -45 -100 -8 -7 -15 -21 -15 -31
0 -43 -18 -15 -25 39 -18 142 -25 189 -42 272 -29 142 -30 134 3 125 16 -4 58
-14 94 -22z m-1635 7 c3 -5 15 -10 25 -10 10 0 31 -5 47 -12 15 -6 48 -18 73
-27 44 -16 45 -17 53 -71 4 -30 12 -77 17 -105 8 -43 18 -116 34 -251 4 -29
-10 -46 -172 -211 -558 -570 -691 -703 -700 -703 -6 0 -27 -17 -46 -37 l-36
-38 13 45 c46 153 62 196 74 207 8 6 32 64 52 127 21 64 41 120 45 123 3 3 6
15 6 25 0 10 4 26 9 36 5 9 14 37 21 62 7 25 16 53 21 62 5 10 9 27 9 37 0 11
5 23 10 26 6 3 10 15 10 26 0 10 4 27 9 37 5 9 15 37 22 62 7 25 16 49 21 54
4 6 8 18 8 28 0 10 4 26 9 36 5 9 15 37 22 62 7 25 16 49 21 55 4 5 8 18 8 30
0 11 17 38 36 60 20 22 68 75 107 119 40 43 76 86 81 94 13 22 59 61 73 62 6
0 15 -4 18 -10z m1418 -75 c3 -22 10 -85 17 -140 6 -55 16 -116 20 -135 5 -19
12 -53 15 -75 3 -22 8 -57 11 -77 3 -21 4 -38 1 -38 -3 0 -30 13 -60 29 -31
16 -57 27 -60 25 -2 -2 -33 10 -68 28 -35 18 -66 33 -69 33 -28 5 -150 71
-150 81 0 24 319 329 331 316 4 -4 9 -25 12 -47z m-474 -47 c-1 -35 2 -84 6
-109 5 -31 3 -49 -4 -54 -11 -6 -201 79 -201 90 0 3 17 16 38 30 20 14 62 43
92 65 30 22 58 40 63 40 4 0 7 -28 6 -62z m-502 -63 c63 -30 118 -55 121 -55
4 0 61 -27 127 -59 66 -32 135 -65 153 -72 35 -15 42 -33 15 -43 -20 -6 -140
-74 -217 -121 -26 -16 -91 -56 -143 -89 -53 -33 -98 -55 -103 -50 -5 5 -13 52
-19 104 -7 52 -15 124 -20 160 -5 36 -14 101 -21 145 -6 44 -13 92 -16 108 -3
15 -2 27 2 27 4 0 58 -25 121 -55z m-2963 -12 c-1 -16 -10 -129 -19 -253 -9
-124 -18 -226 -20 -228 -4 -4 -376 18 -530 32 l-130 12 85 55 c47 31 91 63 99
72 7 9 19 17 26 17 7 0 24 11 39 25 15 14 34 25 42 25 7 0 14 4 14 8 0 5 12
15 27 23 16 8 50 31 78 51 27 21 55 38 62 38 6 0 13 4 15 8 4 10 198 142 208
142 4 0 6 -12 4 -27z m156 -213 c4 -9 26 -63 49 -120 23 -58 46 -113 51 -122
25 -44 16 -49 -82 -42 -51 4 -96 9 -99 13 -5 5 -2 77 15 296 3 39 6 77 6 85 1
8 13 -10 27 -40 14 -30 29 -62 33 -70z m-1051 -10 c65 -36 149 -103 145 -115
-3 -7 -23 -21 -44 -31 -22 -11 -40 -22 -40 -26 0 -5 -8 -8 -17 -8 -17 0 -30
19 -135 209 l-31 54 48 -34 c26 -19 59 -41 74 -49z m4379 -174 c0 -63 2 -118
5 -123 3 -5 7 -63 7 -129 2 -139 14 -132 -129 -72 -148 62 -173 72 -221 88
-19 7 -54 21 -77 31 -24 11 -50 19 -59 19 -28 0 -10 21 45 51 30 17 73 43 97
60 23 16 47 29 53 29 6 0 11 3 11 8 0 4 21 18 48 32 26 13 65 37 88 52 48 34
104 65 121 67 8 1 11 -31 11 -113z m127 104 c3 -5 15 -10 26 -10 10 0 19 -4
19 -10 0 -5 9 -10 20 -10 11 0 20 -4 20 -9 0 -5 12 -11 28 -14 25 -5 93 -41
167 -87 17 -10 40 -19 53 -19 12 -1 22 -6 22 -11 0 -6 -10 -14 -22 -19 -13 -5
-34 -21 -47 -35 -14 -14 -28 -26 -33 -26 -5 0 -21 -13 -35 -30 -13 -16 -29
-30 -34 -30 -8 0 -33 -20 -97 -77 -14 -13 -29 -23 -33 -23 -5 0 -17 -10 -29
-22 -11 -12 -22 -19 -25 -17 -2 3 -7 88 -10 190 -3 101 -8 203 -10 227 -4 39
6 55 20 32z m-812 -202 c3 -18 11 -85 17 -148 6 -63 16 -160 21 -215 22 -204
23 -199 -27 -269 -24 -35 -44 -67 -44 -70 0 -3 -35 -59 -77 -124 -43 -64 -80
-121 -82 -127 -2 -5 -10 -18 -18 -27 -18 -21 -52 -77 -59 -100 -4 -10 -10 -18
-15 -18 -5 0 -9 -5 -9 -10 0 -12 -48 -89 -65 -105 -5 -5 -17 -23 -25 -39 -29
-57 -35 -66 -42 -66 -5 0 -8 -5 -8 -10 0 -6 -22 -44 -50 -86 -27 -41 -50 -79
-50 -83 0 -4 -12 -19 -27 -33 -22 -20 -43 -27 -98 -33 -85 -8 -183 -19 -335
-36 -63 -7 -137 -13 -165 -13 -78 0 -412 24 -490 35 -38 5 -92 12 -120 15 -85
8 -95 12 -95 39 0 13 -4 27 -10 30 -5 3 -10 21 -10 40 0 19 -4 37 -10 40 -5 3
-10 15 -10 26 0 10 -4 27 -9 37 -5 9 -14 37 -21 62 -6 25 -20 73 -31 106 -10
34 -19 69 -19 78 0 9 -4 24 -9 34 -12 24 -31 86 -31 102 0 10 21 12 103 7 88
-6 479 -38 617 -52 229 -22 212 -26 331 86 147 139 439 431 439 440 0 5 4 9 8
9 5 0 20 12 35 28 111 118 472 482 478 482 4 0 9 -15 12 -32z m-3164 -74 c8
-2 77 -7 155 -10 78 -3 147 -7 154 -9 9 -4 11 -25 7 -87 -11 -155 -16 -188
-29 -188 -15 0 -102 46 -126 66 -8 7 -27 16 -42 19 -16 4 -28 10 -28 14 0 3
-27 19 -60 35 -33 16 -60 33 -60 37 0 4 -12 10 -26 13 -22 6 -100 51 -114 66
-3 4 -26 14 -52 24 -27 10 -48 22 -48 26 0 9 241 3 269 -6z m591 -40 c0 -9
-161 -189 -173 -193 -7 -2 -8 17 -4 59 4 35 7 80 7 101 l0 39 85 0 c47 0 85
-3 85 -6z m156 -151 c21 -54 41 -102 46 -107 16 -20 7 -25 -54 -30 -147 -13
-258 -17 -258 -9 0 4 18 28 41 53 22 25 61 70 87 100 26 30 54 62 62 71 8 10
20 18 27 18 6 1 28 -43 49 -96z m2654 55 l25 -10 -21 -16 c-12 -9 -34 -27 -50
-39 -46 -37 -54 -31 -54 42 l0 65 38 -16 c20 -9 48 -20 62 -26z m210 -83 c9
-8 23 -15 31 -15 8 0 19 -4 25 -8 5 -5 37 -17 72 -27 87 -26 91 -34 30 -75
-92 -63 -92 -64 -156 -45 -56 17 -69 21 -125 44 -15 6 -34 11 -42 11 -7 0 -26
5 -41 10 l-27 11 39 29 c21 16 42 30 45 30 4 0 22 14 40 31 27 25 39 30 63 25
16 -4 37 -13 46 -21z m-245 -205 c3 -5 19 -10 35 -10 16 0 32 -4 35 -10 3 -5
16 -10 28 -10 23 0 92 -22 102 -32 8 -8 -112 -108 -129 -108 -9 0 -24 16 -82
86 -39 47 -46 94 -15 94 11 0 23 -4 26 -10z m-2477 -112 c23 -57 42 -106 42
-110 0 -10 -32 2 -45 16 -5 6 -41 27 -78 46 -91 46 -196 102 -226 119 -39 22
-10 28 132 30 l132 2 43 -103z m2427 -100 c14 -18 34 -42 44 -53 16 -19 27
-51 103 -295 17 -52 38 -113 48 -135 9 -22 28 -101 40 -175 12 -74 26 -157 31
-185 11 -64 6 -77 -33 -93 -18 -8 -123 -58 -233 -112 -110 -54 -285 -139 -390
-190 -104 -50 -197 -96 -205 -101 -8 -5 -26 -14 -40 -19 -14 -6 -42 -19 -63
-30 -22 -11 -45 -20 -53 -20 -8 0 -14 -3 -14 -8 0 -4 -15 -13 -32 -21 -18 -7
-76 -34 -128 -60 -52 -26 -107 -51 -122 -55 -43 -10 -35 16 15 47 15 10 27 24
27 32 0 8 3 15 8 15 4 0 13 13 20 28 6 16 20 37 30 48 9 10 23 31 29 47 7 15
17 27 23 27 5 0 10 5 10 11 0 6 41 72 90 145 50 74 90 138 90 143 0 5 7 14 15
21 9 7 23 28 31 46 9 19 20 34 25 34 5 0 9 6 9 13 0 7 23 46 50 86 28 40 50
75 50 78 0 3 26 45 58 93 31 49 79 124 106 167 27 43 68 107 91 143 23 36 70
110 105 165 112 179 123 195 131 195 4 0 19 -15 34 -32z m-2291 -240 c28 -92
102 -355 111 -393 6 -27 14 -57 17 -65 15 -37 57 -187 60 -210 3 -24 8 -26
153 -48 376 -57 682 -61 1065 -12 41 5 76 8 78 5 4 -4 -26 -53 -45 -73 -6 -6
-15 -21 -18 -32 -3 -11 -10 -20 -15 -20 -5 0 -12 -9 -15 -20 -3 -11 -12 -26
-18 -32 -7 -7 -34 -47 -61 -88 -27 -41 -62 -86 -78 -100 -15 -14 -43 -48 -61
-77 -17 -28 -56 -86 -84 -128 -29 -42 -53 -80 -53 -85 0 -5 -4 -10 -8 -12 -4
-1 -23 -30 -41 -63 -19 -33 -70 -114 -114 -180 -43 -66 -83 -130 -88 -143 -5
-12 -13 -22 -19 -22 -5 0 -10 -7 -10 -15 0 -8 -4 -15 -10 -15 -5 0 -10 -6 -10
-14 0 -8 -3 -16 -7 -18 -10 -4 -53 -65 -53 -73 0 -7 -59 -96 -69 -105 -3 -3
-12 -17 -20 -32 -8 -16 -18 -28 -23 -28 -4 0 -8 -5 -8 -11 0 -7 -36 -65 -80
-131 -44 -65 -80 -123 -80 -128 0 -5 -8 -15 -18 -22 -9 -7 -26 -30 -37 -51
-11 -20 -23 -37 -27 -37 -5 0 -8 1 -8 3 0 1 -5 40 -11 87 -5 47 -15 126 -20
175 -6 50 -15 122 -20 160 -5 39 -13 106 -18 150 -8 73 -33 269 -47 370 -3 22
-9 74 -14 115 -5 41 -14 116 -20 165 -24 194 -30 243 -40 325 -27 229 -50 362
-95 534 -14 54 -25 109 -25 122 0 12 -4 26 -10 29 -5 3 -10 21 -10 40 0 19 -4
37 -10 40 -5 3 -10 21 -10 40 0 19 -4 37 -10 40 -19 12 -11 62 13 78 27 20 37
21 41 5z m-105 -300 c12 -51 24 -100 25 -108 2 -8 6 -26 9 -40 4 -14 9 -38 12
-55 2 -16 9 -50 15 -75 6 -25 18 -108 26 -185 9 -77 20 -162 25 -190 5 -27 11
-75 14 -105 3 -30 9 -86 15 -125 5 -38 9 -74 10 -79 0 -8 -31 17 -135 109 -33
29 -73 64 -89 76 -16 13 -45 38 -65 57 -20 18 -53 45 -73 59 -21 14 -38 31
-38 37 0 19 21 90 36 123 8 17 14 38 14 45 0 15 32 115 49 153 5 11 14 40 21
65 6 25 16 53 21 62 5 10 9 29 9 42 0 14 5 28 10 31 6 3 10 15 10 26 0 10 4
27 9 37 15 29 31 87 31 110 0 50 18 16 39 -70z m-286 15 c-10 -15 -25 -39 -31
-53 -7 -14 -25 -47 -41 -75 -15 -27 -47 -86 -71 -130 -24 -44 -46 -82 -49 -85
-3 -3 -19 -30 -34 -60 -15 -30 -44 -84 -64 -120 -19 -36 -49 -91 -64 -122 -16
-31 -34 -60 -39 -63 -15 -9 -12 -61 3 -74 14 -11 136 -80 192 -109 17 -8 41
-23 55 -32 14 -10 65 -39 115 -65 49 -27 103 -56 120 -65 16 -9 57 -32 90 -51
33 -18 62 -37 63 -41 2 -4 12 -8 22 -8 10 0 20 -3 22 -7 3 -7 28 -21 119 -68
10 -5 19 -13 19 -17 0 -5 6 -8 14 -8 7 0 19 -6 25 -14 12 -14 39 -199 61 -406
6 -52 14 -126 19 -165 17 -129 32 -239 41 -320 29 -243 30 -247 79 -243 32 3
41 10 84 73 26 39 56 86 67 105 11 19 38 60 60 90 23 30 50 73 61 94 12 22 26
45 33 52 6 7 25 35 41 63 17 28 33 51 38 51 4 0 7 6 7 13 0 7 8 22 18 33 9 10
23 31 31 47 8 15 18 27 23 27 4 0 8 4 8 10 0 5 35 62 78 127 43 65 120 181
171 258 81 124 98 144 139 164 26 13 59 29 74 37 14 8 32 14 39 14 7 0 76 31
153 69 78 38 204 100 281 136 77 37 201 96 275 132 259 124 478 230 515 250
11 6 61 31 110 55 l90 43 -1 60 c-1 33 -6 87 -12 120 -25 135 -33 188 -28 192
5 5 52 -23 83 -50 12 -11 31 -25 41 -31 35 -20 99 -64 113 -78 8 -7 22 -17 30
-23 89 -56 179 -121 179 -127 0 -4 5 -8 11 -8 9 0 93 -57 219 -149 19 -14 64
-46 100 -69 36 -24 67 -48 68 -53 2 -5 8 -9 13 -9 6 0 40 -21 77 -47 37 -25
81 -56 97 -67 17 -12 32 -24 33 -28 2 -5 8 -8 13 -8 5 0 17 -7 27 -16 18 -16
77 -60 108 -81 19 -13 93 -64 214 -147 36 -24 76 -54 89 -65 13 -12 30 -21 38
-21 7 0 16 -6 19 -14 3 -8 19 -20 35 -26 16 -7 29 -15 29 -19 0 -3 17 -17 38
-31 20 -14 39 -27 42 -30 3 -3 13 -9 22 -15 54 -32 178 -121 178 -127 0 -5 6
-8 13 -8 6 0 31 -15 54 -33 23 -17 54 -41 69 -51 l27 -19 -24 -18 c-13 -10
-31 -19 -41 -19 -9 0 -18 -4 -20 -9 -4 -13 -289 -163 -428 -226 -19 -8 -42
-20 -50 -25 -38 -22 -126 -60 -141 -60 -9 0 -22 -7 -29 -15 -7 -8 -17 -15 -22
-15 -5 0 -34 -11 -64 -25 -30 -14 -59 -25 -64 -25 -6 0 -18 -4 -28 -9 -51 -26
-112 -51 -152 -62 -25 -7 -49 -16 -55 -21 -5 -4 -18 -8 -30 -8 -12 0 -25 -4
-30 -8 -6 -4 -28 -14 -50 -21 -22 -7 -49 -16 -60 -21 -11 -4 -40 -14 -65 -21
-25 -7 -56 -19 -70 -26 -14 -7 -30 -13 -36 -13 -6 0 -49 -11 -95 -25 -92 -28
-123 -37 -186 -54 -40 -10 -58 -15 -160 -40 -21 -6 -66 -17 -101 -26 -59 -15
-104 -25 -212 -44 -25 -5 -81 -16 -125 -26 -44 -10 -87 -17 -95 -17 -8 1 -33
-3 -55 -8 -22 -5 -60 -12 -85 -14 -25 -3 -94 -11 -155 -20 -242 -32 -309 -39
-530 -51 -291 -15 -704 -11 -950 11 -104 9 -206 18 -225 19 -19 2 -89 10 -155
19 -114 16 -174 25 -292 47 -29 5 -77 13 -105 18 -149 26 -598 134 -630 151
-10 6 -27 10 -37 10 -11 0 -23 5 -26 10 -3 5 -16 10 -29 10 -12 0 -56 12 -97
26 -41 14 -87 30 -104 34 -59 16 -240 82 -250 91 -5 5 -17 9 -27 9 -10 0 -26
4 -36 9 -18 9 -62 28 -99 42 -13 5 -34 14 -48 19 -14 6 -35 14 -47 19 -13 5
-39 16 -58 24 -19 8 -53 20 -75 27 -22 7 -46 17 -53 23 -22 17 -105 57 -119
57 -7 0 -13 5 -13 10 0 6 -7 10 -16 10 -9 0 -42 13 -73 29 -31 16 -121 61
-201 101 -80 39 -149 75 -153 79 -8 8 28 42 110 101 26 19 54 40 61 47 7 7 26
20 42 30 17 9 30 20 30 24 0 4 17 18 38 30 20 13 43 29 51 37 8 8 30 24 50 37
20 12 46 32 58 44 12 12 25 21 27 21 6 0 217 158 226 169 3 3 12 11 21 16 37
23 77 52 119 86 25 20 70 54 100 74 30 21 59 42 65 47 46 39 157 118 165 118
5 0 10 4 10 9 0 5 26 28 57 52 32 24 73 58 91 74 19 17 41 34 50 39 9 6 33 24
52 42 46 42 68 60 170 141 47 37 87 69 90 72 3 4 25 22 50 41 47 36 67 52 103
83 12 11 39 33 61 50 21 18 72 60 114 94 42 35 78 61 80 58 2 -2 -4 -16 -15
-32z m123 -30 c-10 -32 -24 -74 -31 -93 -8 -19 -35 -100 -61 -180 -25 -80 -55
-172 -66 -205 -23 -69 -48 -162 -48 -175 0 -5 12 -16 28 -24 15 -8 43 -29 63
-48 42 -39 91 -81 149 -128 24 -19 53 -44 64 -55 12 -12 56 -49 98 -83 43 -35
80 -67 84 -73 9 -14 -35 -1 -56 16 -8 7 -35 24 -60 38 -25 13 -67 37 -95 52
-27 16 -73 40 -101 55 -28 15 -64 36 -80 46 -16 11 -42 26 -59 34 -16 8 -32
17 -35 20 -3 3 -35 21 -72 40 -38 19 -68 38 -68 42 0 5 -8 8 -17 8 -47 1 -46
14 13 126 31 60 60 114 64 119 10 14 69 121 93 170 11 22 23 42 26 45 4 3 17
25 30 50 56 112 88 171 99 182 7 7 12 18 12 26 0 15 33 62 39 56 2 -2 -4 -30
-13 -61z"></path>
<path d="M14480 5885 c-562 -88 -936 -548 -907 -1115 27 -520 392 -916 917
-996 444 -66 880 115 1105 459 66 103 108 198 143 326 23 86 25 115 25 271 0
156 -2 185 -25 271 -71 265 -215 470 -431 613 -232 154 -535 217 -827 171z
m371 -201 c289 -55 524 -244 630 -509 47 -117 62 -204 62 -345 0 -141 -15
-228 -62 -345 -107 -267 -341 -455 -636 -510 -118 -23 -306 -16 -419 14 -297
79 -526 308 -608 606 -31 115 -31 355 0 469 88 319 329 548 652 616 107 23
272 25 381 4z"></path>
<path d="M9690 5785 l0 -95 215 0 215 0 0 -860 0 -860 -215 0 -215 0 0 -95 0
-95 540 0 540 0 0 95 0 95 -215 0 -215 0 0 860 0 860 215 0 215 0 0 95 0 95
-540 0 -540 0 0 -95z"></path>
<path d="M12020 4830 l0 -1050 700 0 700 0 0 95 0 95 -590 0 -590 0 0 955 0
955 -110 0 -110 0 0 -1050z"></path>
<path d="M17050 4830 l0 -1050 700 0 700 0 0 95 0 95 -590 0 -590 0 0 955 0
955 -110 0 -110 0 0 -1050z"></path>
<path d="M18760 5232 c0 -381 4 -681 10 -729 16 -126 46 -229 97 -333 39 -78
62 -110 133 -181 72 -73 101 -94 180 -132 120 -59 233 -86 385 -94 200 -10
350 18 505 94 79 38 109 60 181 132 97 98 152 192 192 331 43 147 47 227 47
913 l0 647 -110 0 -110 0 0 -672 c0 -768 -2 -787 -80 -944 -96 -196 -260 -291
-521 -301 -409 -17 -632 174 -679 582 -6 52 -10 351 -10 713 l0 622 -110 0
-110 0 0 -648z"></path>
<path d="M21150 4830 l0 -1050 530 0 c310 0 571 4 627 11 273 30 471 142 551
309 89 189 62 432 -66 587 -57 71 -157 129 -291 169 -8 3 12 20 49 42 153 91
240 247 240 434 0 208 -88 357 -266 450 -169 88 -253 98 -871 98 l-503 0 0
-1050z m1013 859 c150 -18 252 -63 321 -140 64 -70 81 -119 81 -234 0 -115
-17 -164 -81 -234 -69 -77 -171 -122 -321 -140 -48 -6 -247 -11 -440 -11
l-353 0 0 385 0 385 353 0 c193 0 392 -5 440 -11z m219 -967 c180 -49 266
-132 298 -286 36 -173 -42 -336 -194 -407 -123 -58 -158 -61 -658 -66 l-458
-5 0 397 0 397 468 -4 c438 -4 472 -6 544 -26z"></path>
<path d="M23420 4830 l0 -1050 110 0 110 0 0 1050 0 1050 -110 0 -110 0 0
-1050z"></path>
<path d="M24320 4830 l0 -1050 110 0 110 0 2 850 3 850 675 -850 675 -850 93
0 92 0 0 1050 0 1050 -110 0 -110 0 -2 -848 -3 -849 -675 848 -675 849 -92 0
-93 0 0 -1050z"></path>
<path d="M1854 5530 c-137 -36 -240 -96 -349 -206 -131 -132 -194 -281 -202
-474 -4 -96 -2 -129 17 -200 12 -47 29 -101 38 -120 30 -66 99 -165 153 -219
64 -63 170 -141 193 -141 9 0 16 -4 16 -9 0 -5 10 -11 23 -14 12 -3 60 -17
107 -31 70 -21 105 -26 199 -26 106 0 133 4 236 33 100 28 271 137 329 209 14
18 33 40 41 49 26 28 96 163 118 229 19 55 22 87 22 210 0 147 -3 163 -48 280
-23 62 -83 156 -136 214 -79 85 -223 175 -331 206 -25 7 -58 16 -74 21 -52 16
-274 9 -352 -11z m411 -112 c62 -21 149 -65 187 -96 165 -132 252 -306 250
-502 -2 -310 -235 -576 -549 -625 -94 -15 -27 33 99 71 46 14 94 31 108 38 26
14 129 152 130 174 0 7 4 20 9 30 27 53 32 72 29 107 -4 47 -17 53 -124 54
-70 1 -71 1 -145 58 -64 50 -79 57 -115 56 -38 -1 -102 -32 -176 -84 -14 -11
-28 -19 -30 -19 -1 0 -4 43 -5 95 -1 52 1 95 4 95 3 0 17 -9 32 -19 33 -24 72
-34 87 -24 16 12 34 49 34 71 0 11 31 53 68 93 l69 73 56 -13 c91 -20 122 14
97 105 -13 45 -63 98 -151 159 -34 25 -37 25 -85 10 -27 -8 -50 -15 -50 -15
-1 0 -5 30 -9 66 -5 45 -3 69 4 74 15 8 100 -7 176 -32z m-342 -10 c-15 -16
-63 -48 -107 -71 -65 -35 -90 -56 -145 -122 -36 -44 -85 -108 -109 -143 -40
-58 -43 -67 -39 -113 5 -53 28 -96 55 -106 78 -28 187 -89 236 -131 35 -31 69
-52 83 -52 19 0 23 -5 23 -33 0 -30 22 -81 77 -177 l20 -35 -28 -41 c-17 -26
-33 -68 -41 -109 -7 -37 -19 -70 -26 -73 -29 -11 -157 42 -243 99 -371 249
-376 777 -11 1032 45 31 109 65 152 80 126 43 148 42 103 -5z m67 -128 c0 -46
27 -80 63 -80 12 0 44 7 71 15 49 15 50 15 88 -11 21 -15 38 -30 38 -34 0 -4
-15 -11 -34 -14 -42 -8 -94 -49 -163 -128 l-53 -62 -74 0 c-89 -1 -106 -12
-106 -71 l0 -42 -52 26 c-29 14 -72 34 -95 44 -63 27 -62 44 2 133 87 121 135
169 208 204 36 17 71 38 78 46 20 24 29 16 29 -26z m236 -655 c64 -51 73 -55
121 -55 28 0 54 -4 58 -10 8 -13 -37 -98 -77 -142 -25 -29 -47 -41 -93 -53
-33 -8 -87 -28 -120 -44 -33 -16 -62 -28 -64 -26 -4 5 40 69 51 73 4 2 10 18
13 36 5 26 -2 49 -39 118 -25 47 -46 88 -46 91 0 10 94 67 110 67 10 0 48 -25
86 -55z"></path>
<path d="M258 5256 c-65 -28 -74 -34 -137 -96 -113 -111 -150 -293 -90 -440
61 -148 164 -235 312 -260 115 -20 227 15 321 101 116 106 159 262 118 429
-25 102 -117 211 -215 256 -51 23 -78 29 -157 31 -83 3 -102 0 -152 -21z m233
-87 c20 -5 54 -22 77 -38 42 -31 102 -109 102 -133 0 -8 4 -18 10 -24 19 -19
23 -118 6 -182 -37 -146 -142 -233 -281 -234 -152 -1 -264 100 -295 264 -19
98 15 201 91 276 81 82 166 103 290 71z"></path>
</g>
          </svg>