<svg viewBox="0 0 113 85" fill="none" xmlns="http://www.w3.org/2000/svg">
<path d="M10.5938 0C4.74512 0 0 4.74512 0 10.5938C0 13.9264 1.56699 17.0604 4.2375 19.0687L52.2625 55.0875C54.7785 56.9635 58.2215 56.9635 60.7375 55.0875L108.762 19.0687C111.433 17.0604 113 13.9264 113 10.5938C113 4.74512 108.255 0 102.406 0H10.5938ZM0 24.7188V70.625C0 78.4158 6.33418 84.75 14.125 84.75H98.875C106.666 84.75 113 78.4158 113 70.625V24.7188L64.975 60.7375C59.943 64.5115 53.057 64.5115 48.025 60.7375L0 24.7188Z" fill="white"/>
</svg>
